<svg width="32" height="32" viewBox="0 0 32 32" fill="none" xmlns="http://www.w3.org/2000/svg">
<g clip-path="url(#clip0_249_42)">
<path d="M26.674 15.0259L24.459 9.46991C24.241 8.92291 23.62 8.65591 23.072 8.87191C22.791 8.98291 22.569 9.20991 22.467 9.49291L16.549 25.2849L13.845 2.09491C13.781 1.53691 13.294 1.12391 12.734 1.15091C12.342 1.16791 11.991 1.39791 11.82 1.74891L5.38201 15.0269H1.07001C0.481014 15.0249 0.00201404 15.5039 1.40444e-05 16.0919C-0.00298596 16.6819 0.475014 17.1599 1.06701 17.1619H6.04301C6.45101 17.1629 6.82501 16.9319 7.00501 16.5619L12.151 5.97191L14.941 29.9099C15.012 30.4959 15.545 30.9109 16.131 30.8409C16.523 30.7939 16.856 30.5309 16.997 30.1619L23.497 12.8259L24.965 16.4899C25.127 16.8949 25.52 17.1609 25.956 17.1599H30.93C31.518 17.1619 31.997 16.6859 32 16.0969C32.002 15.5069 31.524 15.0279 30.933 15.0259H26.674Z" fill="white"/>
</g>
<defs>
<clipPath id="clip0_249_42">
<rect width="32" height="32" fill="white"/>
</clipPath>
</defs>
</svg>
