<svg width="32" height="32" viewBox="0 0 32 32" fill="none" xmlns="http://www.w3.org/2000/svg">
<path d="M18.2282 2.01486C17.6534 1.97329 17.0626 2.09263 16.531 2.38592L2.51923 10.1145C2.16499 10.308 1.96166 10.6954 2.00361 11.0969V26.9895C2.00362 28.6342 3.355 29.9953 4.9997 29.9953H26.9978C28.6425 29.9953 30.0017 28.6342 30.0017 26.9895V12.9933C30.0017 11.3486 28.6424 9.99734 26.9978 9.99734H24.3747L20.613 3.48548C20.099 2.59782 19.1863 2.08403 18.2282 2.01486ZM17.8923 4.00117C18.2869 3.94599 18.6659 4.12246 18.8786 4.48941L22.0661 9.99722H6.87666L17.4977 4.13589C17.6272 4.06446 17.7608 4.01943 17.8923 4.00128L17.8923 4.00117ZM4.00361 11.9894C11.6698 12.0083 19.3921 11.9894 26.9978 11.9894C27.5691 11.9894 28.0017 12.422 28.0017 12.9933V14.9952H20.9958C19.3511 14.9952 17.9997 16.3545 17.9997 17.9992V21.9991C17.9997 23.6439 19.3511 24.9972 20.9958 24.9972H28.0017V26.9894C28.0017 27.5607 27.569 27.9933 26.9978 27.9933H4.9997C4.42841 27.9933 4.00361 27.5607 4.00361 26.9894L4.00361 11.9894ZM20.9958 16.9953H28.0017V22.9972H20.9958C20.4245 22.9972 19.9997 22.5705 19.9997 21.9991V17.9992C19.9997 17.4279 20.4245 16.9953 20.9958 16.9953Z" fill="#98A4B5"/>
</svg>
