<svg width="32" height="32" viewBox="0 0 32 32" fill="none" xmlns="http://www.w3.org/2000/svg">
<g clip-path="url(#clip0_492_14)">
<path d="M32 16C32 24.8367 24.8367 32 16 32C7.16333 32 0 24.8367 0 16C0 7.16333 7.16333 0 16 0C24.8367 0 32 7.16333 32 16Z" fill="#FCDD80"/>
<path d="M16 4.96021C9.9126 4.96021 4.96021 9.9126 4.96021 16C4.96021 22.0874 9.9126 27.0398 16 27.0398C18.0188 27.0398 19.9939 26.4897 21.7124 25.4487C22.1553 25.1807 22.2969 24.604 22.0286 24.1611C21.7603 23.7183 21.1838 23.5767 20.741 23.845C19.3157 24.7085 17.6763 25.1648 16 25.1648C10.9465 25.1648 6.83521 21.0535 6.83521 16C6.83521 10.9465 10.9465 6.83521 16 6.83521C21.0535 6.83521 25.1648 10.9465 25.1648 16C25.1648 17.8069 24.6274 19.5659 23.6108 21.0867C23.323 21.5171 23.4387 22.0994 23.8691 22.387C24.2993 22.6748 24.8816 22.5593 25.1694 22.1287C26.3931 20.2986 27.0398 18.1792 27.0398 16C27.0398 9.9126 22.0874 4.96021 16 4.96021Z" fill="white"/>
<path d="M16.4282 23.3584C16.9458 23.3584 17.3657 22.9387 17.3657 22.4209V21.689H18.6965C20.5547 21.689 22.0674 20.1809 22.0742 18.3245C22.0742 18.322 22.0742 18.3198 22.0742 18.3176C22.0742 18.3167 22.0742 18.3157 22.0742 18.3145C22.0742 18.3135 22.0742 18.3125 22.0742 18.3115C22.0742 18.3093 22.0742 18.3071 22.0742 18.3049C22.0698 17.0891 21.4216 16.0227 20.4543 15.4297C20.6191 15.1968 20.7546 14.9399 20.8545 14.6636C20.9822 14.3098 21.0471 13.9385 21.0471 13.5601C21.0471 11.7686 19.5876 10.311 17.7942 10.311H17.3657V9.53613C17.3657 9.01855 16.9458 8.59863 16.4282 8.59863C15.9104 8.59863 15.4907 9.01855 15.4907 9.53613V10.311H14.3691V9.53613C14.3691 9.01855 13.9495 8.59863 13.4316 8.59863C12.9138 8.59863 12.4941 9.01855 12.4941 9.53613V10.311H11.7195C11.2017 10.311 10.782 10.7307 10.782 11.2485C10.782 11.7664 11.2017 12.186 11.7195 12.186H12.4941V19.814H11.7195C11.2017 19.814 10.782 20.2336 10.782 20.7515C10.782 21.2693 11.2017 21.689 11.7195 21.689H12.4941V22.4209C12.4941 22.9387 12.9138 23.3584 13.4316 23.3584C13.9495 23.3584 14.3691 22.9387 14.3691 22.4209V21.689H15.4905V22.4209C15.4907 22.9387 15.9104 23.3584 16.4282 23.3584ZM14.3691 12.186H17.7942C18.5537 12.186 19.1719 12.8025 19.1719 13.5601C19.1719 13.7207 19.1445 13.8779 19.0908 14.0269C18.8948 14.5693 18.3738 14.9341 17.7942 14.9341H16.4709C15.9531 14.9341 15.5334 15.3538 15.5334 15.8716C15.5334 16.3894 15.9531 16.8091 16.4709 16.8091H18.6963C19.5242 16.8091 20.1975 17.4841 20.1992 18.3145C20.1975 19.1416 19.5242 19.814 18.6963 19.814H14.3691V12.186Z" fill="white"/>
</g>
<defs>
<clipPath id="clip0_492_14">
<rect width="32" height="32" fill="white"/>
</clipPath>
</defs>
</svg>
