<svg width="16" height="16" viewBox="0 0 16 16" fill="none" xmlns="http://www.w3.org/2000/svg">
<path d="M10.8733 8.00007C11.5891 7.52529 12.133 6.83272 12.4246 6.02483C12.7163 5.21694 12.7401 4.33663 12.4926 3.51415C12.2451 2.69166 11.7394 1.97069 11.0504 1.45788C10.3614 0.945079 9.52558 0.667684 8.66667 0.666737H2V2.00007H3.33333V14.0001H2V15.3334H8.66667C9.52558 15.3325 10.3614 15.0551 11.0504 14.5423C11.7394 14.0294 12.2451 13.3085 12.4926 12.486C12.7401 11.6635 12.7163 10.7832 12.4246 9.97531C12.133 9.16742 11.5891 8.47485 10.8733 8.00007ZM8.66667 2.00007C9.37391 2.00007 10.0522 2.28102 10.5523 2.78112C11.0524 3.28122 11.3333 3.95949 11.3333 4.66674C11.3333 5.37398 11.0524 6.05226 10.5523 6.55235C10.0522 7.05245 9.37391 7.3334 8.66667 7.3334H4.66667V2.00007H8.66667ZM8.66667 14.0001H4.66667V8.66674H8.66667C9.37391 8.66674 10.0522 8.94769 10.5523 9.44778C11.0524 9.94788 11.3333 10.6262 11.3333 11.3334C11.3333 12.0406 11.0524 12.7189 10.5523 13.219C10.0522 13.7191 9.37391 14.0001 8.66667 14.0001Z" fill="#98A4B5"/>
</svg>
