<svg width="24" height="24" viewBox="0 0 24 24" fill="none" xmlns="http://www.w3.org/2000/svg">
<path d="M20.009 6.34737H15.6995V4.55109C15.6995 3.69579 15.0268 3 14.1999 3H9.80001C8.97316 3 8.30047 3.69579 8.30047 4.55109V6.34737H3.99099C2.89313 6.34737 2 7.27127 2 8.40686V18.9405C2 20.0761 2.89313 21 3.99099 21H20.009C21.1068 21 22 20.0761 22 18.9405V8.40686C22 7.27127 21.1068 6.34737 20.009 6.34737ZM9.5706 4.55109C9.5706 4.42024 9.67352 4.31382 9.80001 4.31382H14.1999C14.3264 4.31382 14.4294 4.42028 14.4294 4.55109V6.34737H9.5706V4.55109ZM3.27012 8.40686C3.27012 7.99568 3.59349 7.66119 3.99099 7.66119H20.009C20.4065 7.66119 20.7299 7.99568 20.7299 8.40686V9.37913C20.7299 10.2911 20.1387 11.106 19.2923 11.3609L12.6501 13.3614C12.2248 13.4895 11.7752 13.4895 11.3498 13.3614L4.70774 11.3609C3.86128 11.106 3.27012 10.2911 3.27012 9.37913V8.40686ZM20.009 19.6862H3.99099C3.59353 19.6862 3.27012 19.3517 3.27012 18.9406V12.0539C3.59015 12.3098 3.95495 12.5026 4.35266 12.6224C11.69 14.8321 11.3128 14.7713 12 14.7713C12.6962 14.7713 12.3014 14.8347 19.6473 12.6224C20.045 12.5026 20.4098 12.3098 20.7298 12.0539V18.9405C20.7299 19.3517 20.4065 19.6862 20.009 19.6862Z" fill="#01A2FD"/>
</svg>
