<svg width="32" height="32" viewBox="0 0 32 32" fill="none" xmlns="http://www.w3.org/2000/svg">
<path d="M28 3H26V2C26 1.73478 25.8946 1.48043 25.7071 1.29289C25.5196 1.10536 25.2652 1 25 1C24.7348 1 24.4804 1.10536 24.2929 1.29289C24.1054 1.48043 24 1.73478 24 2V3H17V2C17 1.73478 16.8946 1.48043 16.7071 1.29289C16.5196 1.10536 16.2652 1 16 1C15.7348 1 15.4804 1.10536 15.2929 1.29289C15.1054 1.48043 15 1.73478 15 2V3H8V2C8 1.73478 7.89464 1.48043 7.70711 1.29289C7.51957 1.10536 7.26522 1 7 1C6.73478 1 6.48043 1.10536 6.29289 1.29289C6.10536 1.48043 6 1.73478 6 2V3H4C3.20435 3 2.44129 3.31607 1.87868 3.87868C1.31607 4.44129 1 5.20435 1 6V28C1 28.7956 1.31607 29.5587 1.87868 30.1213C2.44129 30.6839 3.20435 31 4 31H28C28.7956 31 29.5587 30.6839 30.1213 30.1213C30.6839 29.5587 31 28.7956 31 28V6C31 5.20435 30.6839 4.44129 30.1213 3.87868C29.5587 3.31607 28.7956 3 28 3ZM4 5H6V6C6 6.26522 6.10536 6.51957 6.29289 6.70711C6.48043 6.89464 6.73478 7 7 7C7.26522 7 7.51957 6.89464 7.70711 6.70711C7.89464 6.51957 8 6.26522 8 6V5H15V6C15 6.26522 15.1054 6.51957 15.2929 6.70711C15.4804 6.89464 15.7348 7 16 7C16.2652 7 16.5196 6.89464 16.7071 6.70711C16.8946 6.51957 17 6.26522 17 6V5H24V6C24 6.26522 24.1054 6.51957 24.2929 6.70711C24.4804 6.89464 24.7348 7 25 7C25.2652 7 25.5196 6.89464 25.7071 6.70711C25.8946 6.51957 26 6.26522 26 6V5H28C28.2652 5 28.5196 5.10536 28.7071 5.29289C28.8946 5.48043 29 5.73478 29 6V11H3V6C3 5.73478 3.10536 5.48043 3.29289 5.29289C3.48043 5.10536 3.73478 5 4 5ZM28 29H4C3.73478 29 3.48043 28.8946 3.29289 28.7071C3.10536 28.5196 3 28.2652 3 28V13H29V28C29 28.2652 28.8946 28.5196 28.7071 28.7071C28.5196 28.8946 28.2652 29 28 29Z" fill="#98A4B5"/>
</svg>
