<svg width="32" height="32" viewBox="0 0 32 32" fill="none" xmlns="http://www.w3.org/2000/svg">
<path d="M28 3H13C12.2044 3 11.4413 3.31607 10.8787 3.87868C10.3161 4.44129 10 5.20435 10 6V8H4C3.20435 8 2.44129 8.31607 1.87868 8.87868C1.31607 9.44129 1 10.2044 1 11V22C1 22.7956 1.31607 23.5587 1.87868 24.1213C2.44129 24.6839 3.20435 25 4 25V28C4.00004 28.1978 4.05871 28.391 4.1686 28.5555C4.27848 28.7199 4.43465 28.848 4.61735 28.9237C4.80005 28.9993 5.00108 29.0192 5.19503 28.9806C5.38898 28.942 5.56715 28.8468 5.707 28.707L9.414 25H19C19.7956 25 20.5587 24.6839 21.1213 24.1213C21.6839 23.5587 22 22.7956 22 22V20H22.586L26.293 23.707C26.4338 23.8455 26.6119 23.9398 26.8056 23.9783C26.9992 24.0169 27.1999 23.998 27.383 23.924C27.5657 23.8483 27.7218 23.72 27.8316 23.5556C27.9415 23.3911 28 23.1978 28 23V20C28.7956 20 29.5587 19.6839 30.1213 19.1213C30.6839 18.5587 31 17.7956 31 17V6C31 5.20435 30.6839 4.44129 30.1213 3.87868C29.5587 3.31607 28.7956 3 28 3ZM20 22C20 22.2652 19.8946 22.5196 19.7071 22.7071C19.5196 22.8946 19.2652 23 19 23H9C8.73481 23.0001 8.48049 23.1054 8.293 23.293L6 25.586V24C6 23.7348 5.89464 23.4804 5.70711 23.2929C5.51957 23.1054 5.26522 23 5 23H4C3.73478 23 3.48043 22.8946 3.29289 22.7071C3.10536 22.5196 3 22.2652 3 22V11C3 10.7348 3.10536 10.4804 3.29289 10.2929C3.48043 10.1054 3.73478 10 4 10H10V17C10 17.7956 10.3161 18.5587 10.8787 19.1213C11.4413 19.6839 12.2044 20 13 20H20V22ZM29 17C29 17.2652 28.8946 17.5196 28.7071 17.7071C28.5196 17.8946 28.2652 18 28 18H27C26.7348 18 26.4804 18.1054 26.2929 18.2929C26.1054 18.4804 26 18.7348 26 19V20.586L23.707 18.293C23.5195 18.1054 23.2652 18.0001 23 18H13C12.7348 18 12.4804 17.8946 12.2929 17.7071C12.1054 17.5196 12 17.2652 12 17V6C12 5.73478 12.1054 5.48043 12.2929 5.29289C12.4804 5.10536 12.7348 5 13 5H28C28.2652 5 28.5196 5.10536 28.7071 5.29289C28.8946 5.48043 29 5.73478 29 6V17Z" fill="#98A4B5"/>
<path d="M24 8H17C16.7348 8 16.4804 8.10536 16.2929 8.29289C16.1054 8.48043 16 8.73478 16 9C16 9.26522 16.1054 9.51957 16.2929 9.70711C16.4804 9.89464 16.7348 10 17 10H24C24.2652 10 24.5196 9.89464 24.7071 9.70711C24.8946 9.51957 25 9.26522 25 9C25 8.73478 24.8946 8.48043 24.7071 8.29289C24.5196 8.10536 24.2652 8 24 8Z" fill="#98A4B5"/>
<path d="M24 13H17C16.7348 13 16.4804 13.1054 16.2929 13.2929C16.1054 13.4804 16 13.7348 16 14C16 14.2652 16.1054 14.5196 16.2929 14.7071C16.4804 14.8946 16.7348 15 17 15H24C24.2652 15 24.5196 14.8946 24.7071 14.7071C24.8946 14.5196 25 14.2652 25 14C25 13.7348 24.8946 13.4804 24.7071 13.2929C24.5196 13.1054 24.2652 13 24 13Z" fill="#98A4B5"/>
</svg>
