<svg width="24" height="24" viewBox="0 0 24 24" fill="none" xmlns="http://www.w3.org/2000/svg">
<path d="M13.6491 12.0001L20.6579 4.99094C21.114 4.53502 21.114 3.79786 20.6579 3.34194C20.202 2.88602 19.4649 2.88602 19.0089 3.34194L11.9999 10.3511L4.99106 3.34194C4.53493 2.88602 3.798 2.88602 3.34209 3.34194C2.88597 3.79786 2.88597 4.53502 3.34209 4.99094L10.3509 12.0001L3.34209 19.0093C2.88597 19.4653 2.88597 20.2024 3.34209 20.6583C3.5693 20.8858 3.86804 21 4.16657 21C4.4651 21 4.76363 20.8858 4.99106 20.6583L11.9999 13.6491L19.0089 20.6583C19.2364 20.8858 19.5349 21 19.8334 21C20.132 21 20.4305 20.8858 20.6579 20.6583C21.114 20.2024 21.114 19.4653 20.6579 19.0093L13.6491 12.0001Z" fill="#98A4B5"/>
</svg>
