<svg width="32" height="32" viewBox="0 0 32 32" fill="none" xmlns="http://www.w3.org/2000/svg">
<path d="M27 2H7C6.46957 2 5.96086 2.21071 5.58579 2.58579C5.21071 2.96086 5 3.46957 5 4V6H4C3.73478 6 3.48043 6.10536 3.29289 6.29289C3.10536 6.48043 3 6.73478 3 7C3 7.26522 3.10536 7.51957 3.29289 7.70711C3.48043 7.89464 3.73478 8 4 8H5V15H4C3.73478 15 3.48043 15.1054 3.29289 15.2929C3.10536 15.4804 3 15.7348 3 16C3 16.2652 3.10536 16.5196 3.29289 16.7071C3.48043 16.8946 3.73478 17 4 17H5V24H4C3.73478 24 3.48043 24.1054 3.29289 24.2929C3.10536 24.4804 3 24.7348 3 25C3 25.2652 3.10536 25.5196 3.29289 25.7071C3.48043 25.8946 3.73478 26 4 26H5V28C5 28.5304 5.21071 29.0391 5.58579 29.4142C5.96086 29.7893 6.46957 30 7 30H27C27.5304 30 28.0391 29.7893 28.4142 29.4142C28.7893 29.0391 29 28.5304 29 28V4C29 3.46957 28.7893 2.96086 28.4142 2.58579C28.0391 2.21071 27.5304 2 27 2ZM7 28V26H8C8.26522 26 8.51957 25.8946 8.70711 25.7071C8.89464 25.5196 9 25.2652 9 25C9 24.7348 8.89464 24.4804 8.70711 24.2929C8.51957 24.1054 8.26522 24 8 24H7V17H8C8.26522 17 8.51957 16.8946 8.70711 16.7071C8.89464 16.5196 9 16.2652 9 16C9 15.7348 8.89464 15.4804 8.70711 15.2929C8.51957 15.1054 8.26522 15 8 15H7V8H8C8.26522 8 8.51957 7.89464 8.70711 7.70711C8.89464 7.51957 9 7.26522 9 7C9 6.73478 8.89464 6.48043 8.70711 6.29289C8.51957 6.10536 8.26522 6 8 6H7V4H27V28H7ZM17 15.5C17.7911 15.5 18.5645 15.2654 19.2223 14.8259C19.8801 14.3864 20.3928 13.7616 20.6955 13.0307C20.9983 12.2998 21.0775 11.4956 20.9231 10.7196C20.7688 9.94371 20.3878 9.23098 19.8284 8.67157C19.269 8.11216 18.5563 7.7312 17.7804 7.57686C17.0044 7.42252 16.2002 7.50173 15.4693 7.80448C14.7384 8.10723 14.1136 8.61992 13.6741 9.27772C13.2346 9.93552 13 10.7089 13 11.5C13 12.5609 13.4214 13.5783 14.1716 14.3284C14.9217 15.0786 15.9391 15.5 17 15.5ZM17 9.5C17.3956 9.5 17.7822 9.6173 18.1111 9.83706C18.44 10.0568 18.6964 10.3692 18.8478 10.7346C18.9991 11.1001 19.0387 11.5022 18.9616 11.8902C18.8844 12.2781 18.6939 12.6345 18.4142 12.9142C18.1345 13.1939 17.7781 13.3844 17.3902 13.4616C17.0022 13.5387 16.6001 13.4991 16.2346 13.3478C15.8692 13.1964 15.5568 12.94 15.3371 12.6111C15.1173 12.2822 15 11.8956 15 11.5C15 10.9696 15.2107 10.4609 15.5858 10.0858C15.9609 9.71071 16.4696 9.5 17 9.5ZM20 16.5H14C13.2044 16.5 12.4413 16.8161 11.8787 17.3787C11.3161 17.9413 11 18.7044 11 19.5V22.5C11 23.0304 11.2107 23.5391 11.5858 23.9142C11.9609 24.2893 12.4696 24.5 13 24.5H21C21.5304 24.5 22.0391 24.2893 22.4142 23.9142C22.7893 23.5391 23 23.0304 23 22.5V19.5C23 18.7044 22.6839 17.9413 22.1213 17.3787C21.5587 16.8161 20.7956 16.5 20 16.5ZM21 22.5H13V19.5C13 19.2348 13.1054 18.9804 13.2929 18.7929C13.4804 18.6054 13.7348 18.5 14 18.5H20C20.2652 18.5 20.5196 18.6054 20.7071 18.7929C20.8946 18.9804 21 19.2348 21 19.5V22.5Z" fill="#98A4B5"/>
</svg>
