<svg width="32" height="32" viewBox="0 0 32 32" fill="none" xmlns="http://www.w3.org/2000/svg">
<path d="M16 4C13.6266 4 11.3066 4.70379 9.33316 6.02236C7.35977 7.34094 5.8217 9.21509 4.91345 11.4078C4.0052 13.6005 3.76756 16.0133 4.23058 18.3411C4.6936 20.6689 5.83649 22.8071 7.51472 24.4853C9.19295 26.1635 11.3312 27.3064 13.6589 27.7694C15.9867 28.2324 18.3995 27.9948 20.5922 27.0866C22.7849 26.1783 24.6591 24.6402 25.9776 22.6668C27.2962 20.6935 28 18.3734 28 16C27.9965 12.8185 26.7311 9.76823 24.4815 7.51855C22.2318 5.26886 19.1815 4.00347 16 4ZM16 26C14.0222 26 12.0888 25.4135 10.4443 24.3147C8.79981 23.2159 7.51809 21.6541 6.76121 19.8268C6.00433 17.9996 5.8063 15.9889 6.19215 14.0491C6.578 12.1093 7.53041 10.3275 8.92894 8.92893C10.3275 7.53041 12.1093 6.578 14.0491 6.19215C15.9889 5.8063 17.9996 6.00433 19.8268 6.7612C21.6541 7.51808 23.2159 8.79981 24.3147 10.4443C25.4135 12.0888 26 14.0222 26 16C25.9969 18.6512 24.9423 21.193 23.0677 23.0676C21.193 24.9423 18.6512 25.9969 16 26Z" fill="#98A4B5"/>
<path d="M17.0001 10.0328V9C17.0001 8.73478 16.8947 8.48043 16.7072 8.29289C16.5196 8.10536 16.2653 8 16.0001 8C15.7349 8 15.4805 8.10536 15.293 8.29289C15.1054 8.48043 15.0001 8.73478 15.0001 9V10.0328C14.2428 10.105 13.5335 10.4354 12.991 10.9686C12.4485 11.5018 12.1059 12.2054 12.0207 12.9613C11.9355 13.7172 12.1129 14.4794 12.5231 15.12C12.9333 15.7606 13.5513 16.2406 14.2735 16.4795L17.0935 17.418C17.3918 17.5175 17.6451 17.7198 17.808 17.9888C17.9708 18.2579 18.0327 18.5761 17.9825 18.8866C17.9322 19.197 17.7732 19.4795 17.5339 19.6835C17.2945 19.8875 16.9904 19.9997 16.6759 20H15.3243C14.9732 19.9997 14.6365 19.8601 14.3882 19.6118C14.14 19.3636 14.0004 19.0269 14.0001 18.6758V18C14.0001 17.7348 13.8947 17.4804 13.7072 17.2929C13.5196 17.1054 13.2653 17 13.0001 17C12.7349 17 12.4805 17.1054 12.293 17.2929C12.1054 17.4804 12.0001 17.7348 12.0001 18V18.6758C12.0027 19.4988 12.3111 20.2915 12.8656 20.8998C13.42 21.5081 14.1808 21.8885 15.0001 21.9672V23C15.0001 23.2652 15.1054 23.5196 15.293 23.7071C15.4805 23.8946 15.7349 24 16.0001 24C16.2653 24 16.5196 23.8946 16.7072 23.7071C16.8947 23.5196 17.0001 23.2652 17.0001 23V21.9672C17.7573 21.895 18.4667 21.5646 19.0092 21.0314C19.5516 20.4982 19.8942 19.7946 19.9794 19.0387C20.0646 18.2828 19.8872 17.5206 19.477 16.88C19.0669 16.2394 18.4488 15.7594 17.7267 15.5205L14.9067 14.582C14.6082 14.4827 14.3548 14.2803 14.1918 14.0113C14.0289 13.7422 13.9669 13.4239 14.0172 13.1134C14.0674 12.8028 14.2265 12.5203 14.466 12.3163C14.7054 12.1123 15.0097 12.0002 15.3243 12H16.6759C17.027 12.0003 17.3636 12.1399 17.6119 12.3882C17.8602 12.6364 17.9998 12.9731 18.0001 13.3242V14C18.0001 14.2652 18.1054 14.5196 18.293 14.7071C18.4805 14.8946 18.7349 15 19.0001 15C19.2653 15 19.5196 14.8946 19.7072 14.7071C19.8947 14.5196 20.0001 14.2652 20.0001 14V13.3242C19.9975 12.5012 19.689 11.7085 19.1346 11.1002C18.5801 10.4919 17.8194 10.1115 17.0001 10.0328Z" fill="#98A4B5"/>
</svg>
