<svg width="110" height="54" viewBox="0 0 110 54" fill="none" xmlns="http://www.w3.org/2000/svg">
<path d="M8.388 14.728V40H2.232V14.728H8.388ZM25.0892 19.696C27.4412 19.696 29.3132 20.464 30.7052 22C32.1212 23.512 32.8292 25.6 32.8292 28.264V40H26.7092V29.092C26.7092 27.748 26.3612 26.704 25.6652 25.96C24.9692 25.216 24.0332 24.844 22.8572 24.844C21.6812 24.844 20.7452 25.216 20.0492 25.96C19.3532 26.704 19.0052 27.748 19.0052 29.092V40H12.8492V19.912H19.0052V22.576C19.6292 21.688 20.4692 20.992 21.5252 20.488C22.5812 19.96 23.7692 19.696 25.0892 19.696ZM44.739 19.624C46.155 19.624 47.391 19.912 48.447 20.488C49.527 21.064 50.355 21.82 50.931 22.756V19.912H57.087V39.964C57.087 41.812 56.715 43.48 55.971 44.968C55.251 46.48 54.135 47.68 52.623 48.568C51.135 49.456 49.275 49.9 47.043 49.9C44.067 49.9 41.655 49.192 39.807 47.776C37.959 46.384 36.903 44.488 36.639 42.088H42.723C42.915 42.856 43.371 43.456 44.091 43.888C44.811 44.344 45.699 44.572 46.755 44.572C48.027 44.572 49.035 44.2 49.779 43.456C50.547 42.736 50.931 41.572 50.931 39.964V37.12C50.331 38.056 49.503 38.824 48.447 39.424C47.391 40 46.155 40.288 44.739 40.288C43.083 40.288 41.583 39.868 40.239 39.028C38.895 38.164 37.827 36.952 37.035 35.392C36.267 33.808 35.883 31.984 35.883 29.92C35.883 27.856 36.267 26.044 37.035 24.484C37.827 22.924 38.895 21.724 40.239 20.884C41.583 20.044 43.083 19.624 44.739 19.624ZM50.931 29.956C50.931 28.42 50.499 27.208 49.635 26.32C48.795 25.432 47.763 24.988 46.539 24.988C45.315 24.988 44.271 25.432 43.407 26.32C42.567 27.184 42.147 28.384 42.147 29.92C42.147 31.456 42.567 32.68 43.407 33.592C44.271 34.48 45.315 34.924 46.539 34.924C47.763 34.924 48.795 34.48 49.635 33.592C50.499 32.704 50.931 31.492 50.931 29.956ZM67.6966 23.26C68.4166 22.156 69.3166 21.292 70.3966 20.668C71.4766 20.02 72.6766 19.696 73.9966 19.696V26.212H72.3046C70.7686 26.212 69.6166 26.548 68.8486 27.22C68.0806 27.868 67.6966 29.02 67.6966 30.676V40H61.5406V19.912H67.6966V23.26ZM80.035 17.824C78.955 17.824 78.067 17.512 77.371 16.888C76.699 16.24 76.363 15.448 76.363 14.512C76.363 13.552 76.699 12.76 77.371 12.136C78.067 11.488 78.955 11.164 80.035 11.164C81.091 11.164 81.955 11.488 82.627 12.136C83.323 12.76 83.671 13.552 83.671 14.512C83.671 15.448 83.323 16.24 82.627 16.888C81.955 17.512 81.091 17.824 80.035 17.824ZM83.095 19.912V40H76.939V19.912H83.095ZM86.3322 29.92C86.3322 27.856 86.7162 26.044 87.4842 24.484C88.2762 22.924 89.3442 21.724 90.6882 20.884C92.0322 20.044 93.5322 19.624 95.1882 19.624C96.5082 19.624 97.7082 19.9 98.7882 20.452C99.8922 21.004 100.756 21.748 101.38 22.684V13.36H107.536V40H101.38V37.12C100.804 38.08 99.9762 38.848 98.8962 39.424C97.8402 40 96.6042 40.288 95.1882 40.288C93.5322 40.288 92.0322 39.868 90.6882 39.028C89.3442 38.164 88.2762 36.952 87.4842 35.392C86.7162 33.808 86.3322 31.984 86.3322 29.92ZM101.38 29.956C101.38 28.42 100.948 27.208 100.084 26.32C99.2442 25.432 98.2122 24.988 96.9882 24.988C95.7642 24.988 94.7202 25.432 93.8562 26.32C93.0162 27.184 92.5962 28.384 92.5962 29.92C92.5962 31.456 93.0162 32.68 93.8562 33.592C94.7202 34.48 95.7642 34.924 96.9882 34.924C98.2122 34.924 99.2442 34.48 100.084 33.592C100.948 32.704 101.38 31.492 101.38 29.956Z" fill="white"/>
<ellipse cx="80" cy="14.5" rx="4" ry="3.5" fill="#01A2FD"/>
</svg>
