<svg width="32" height="32" viewBox="0 0 32 32" fill="none" xmlns="http://www.w3.org/2000/svg">
<path d="M4 10.6668V26.6668C4 27.0205 4.14048 27.3596 4.39052 27.6096C4.64057 27.8597 4.97971 28.0002 5.33333 28.0002H12C12.3536 28.0002 12.6928 27.8597 12.9428 27.6096C13.1929 27.3596 13.3333 27.0205 13.3333 26.6668V17.3335H18.6667V26.6668C18.6667 27.0205 18.8071 27.3596 19.0572 27.6096C19.3072 27.8597 19.6464 28.0002 20 28.0002H26.6667C27.0203 28.0002 27.3594 27.8597 27.6095 27.6096C27.8595 27.3596 28 27.0205 28 26.6668V10.6668C28 10.4598 27.9518 10.2557 27.8592 10.0705C27.7667 9.8854 27.6323 9.72436 27.4667 9.60016L16.8 1.60016C16.5692 1.42707 16.2885 1.3335 16 1.3335C15.7115 1.3335 15.4308 1.42707 15.2 1.60016L4.53333 9.60016C4.36774 9.72436 4.23333 9.8854 4.14076 10.0705C4.04819 10.2557 4 10.4598 4 10.6668ZM6.66667 11.3335L16 4.3335L25.3333 11.3335V25.3335H21.3333V16.0002C21.3333 15.6465 21.1929 15.3074 20.9428 15.0574C20.6928 14.8073 20.3536 14.6668 20 14.6668H12C11.6464 14.6668 11.3072 14.8073 11.0572 15.0574C10.8071 15.3074 10.6667 15.6465 10.6667 16.0002V25.3335H6.66667V11.3335Z" fill="#98A4B5"/>
</svg>
