<svg width="24" height="24" viewBox="0 0 24 24" fill="none" xmlns="http://www.w3.org/2000/svg">
<g clip-path="url(#clip0_286_5415)">
<path d="M2.14681 14.3538L11.6467 23.8538C11.8417 24.0487 12.1587 24.0487 12.3537 23.8538L21.8536 14.3538C22.8756 13.3318 22.8756 11.6689 21.8536 10.6468C20.8316 9.62484 19.1686 9.62484 18.1466 10.6468L14.5007 14.2928L14.5007 2.49991C14.5007 1.12194 13.3787 -4.65843e-05 12.0007 -4.67047e-05C10.6228 -4.68252e-05 9.50077 1.12194 9.50077 2.49991L9.50077 14.2928L5.85482 10.6469C4.83281 9.62489 3.16984 9.62489 2.14784 10.6469C1.12583 11.6679 1.12583 13.3319 2.14681 14.3538Z" fill="#01A2FD"/>
</g>
<defs>
<clipPath id="clip0_286_5415">
<rect width="24" height="24" fill="white" transform="translate(24 24) rotate(-180)"/>
</clipPath>
</defs>
</svg>
