<svg width="32" height="32" viewBox="0 0 32 32" fill="none" xmlns="http://www.w3.org/2000/svg">
<path d="M26.4 31H9.76996C9.05652 31 8.37231 30.7166 7.86784 30.2121C7.36337 29.7076 7.07996 29.0234 7.07996 28.31V3.69C7.07996 2.97657 7.36337 2.29236 7.86784 1.78788C8.37231 1.28341 9.05652 1 9.76996 1H17.4C18.0829 1.00139 18.7414 1.25413 19.25 1.71L28.15 9.71C28.4426 9.97175 28.6767 10.2923 28.837 10.6507C28.9972 11.0092 29.08 11.3974 29.08 11.79V28.31C29.08 29.0217 28.7979 29.7044 28.2956 30.2086C27.7933 30.7128 27.1117 30.9974 26.4 31ZM9.76996 3C9.58696 3 9.41145 3.0727 9.28205 3.2021C9.15265 3.3315 9.07996 3.507 9.07996 3.69V28.31C9.07996 28.493 9.15265 28.6685 9.28205 28.7979C9.41145 28.9273 9.58696 29 9.76996 29H26.4C26.583 29 26.7585 28.9273 26.8879 28.7979C27.0173 28.6685 27.09 28.493 27.09 28.31V11.74C27.0898 11.6305 27.0665 11.5222 27.0217 11.4223C26.9769 11.3224 26.9116 11.233 26.83 11.16L17.93 3.16C17.7788 3.04365 17.5902 2.98673 17.4 3H9.76996Z" fill="#98A4B5"/>
<path d="M28.0802 11.94H19.2702C18.6894 11.94 18.1323 11.7093 17.7216 11.2986C17.3109 10.8879 17.0802 10.3309 17.0802 9.75003V2.56003H19.0802V9.75003C19.0802 9.80042 19.1002 9.84875 19.1359 9.88438C19.1715 9.92001 19.2198 9.94003 19.2702 9.94003H28.0802V11.94Z" fill="#98A4B5"/>
<path d="M22.4203 24H14.4203C13.868 24 13.4203 24.4477 13.4203 25C13.4203 25.5523 13.868 26 14.4203 26H22.4203C22.9726 26 23.4203 25.5523 23.4203 25C23.4203 24.4477 22.9726 24 22.4203 24Z" fill="#98A4B5"/>
<path d="M16.4203 19.69H14.4203C13.868 19.69 13.4203 20.1377 13.4203 20.69C13.4203 21.2423 13.868 21.69 14.4203 21.69H16.4203C16.9726 21.69 17.4203 21.2423 17.4203 20.69C17.4203 20.1377 16.9726 19.69 16.4203 19.69Z" fill="#98A4B5"/>
<path d="M5.41004 26.66C4.74864 26.6522 4.11685 26.3846 3.651 25.915C3.18516 25.4454 2.92262 24.8115 2.92004 24.15V7.85003C2.91997 7.47927 3.00236 7.11313 3.16125 6.77815C3.32013 6.44316 3.55154 6.14771 3.83871 5.91319C4.12587 5.67867 4.4616 5.51096 4.82158 5.42221C5.18156 5.33345 5.55678 5.32588 5.92004 5.40003L8.07004 5.76003L7.74004 7.76003L5.57004 7.37003C5.4916 7.34875 5.40932 7.34581 5.32955 7.36141C5.24979 7.37702 5.17468 7.41076 5.11004 7.46003C5.05112 7.50659 5.00344 7.56583 4.97054 7.63335C4.93765 7.70087 4.92039 7.77493 4.92004 7.85003V24.15C4.92152 24.2246 4.93934 24.298 4.97226 24.365C5.00518 24.4319 5.05239 24.4908 5.11056 24.5376C5.16872 24.5843 5.23644 24.6177 5.30892 24.6354C5.3814 24.6531 5.45688 24.6547 5.53004 24.64L7.79004 24.34L8.05004 26.34L5.86004 26.63C5.71155 26.6561 5.56068 26.6661 5.41004 26.66Z" fill="#98A4B5"/>
</svg>
