<svg width="52" height="50" viewBox="0 0 52 50" fill="none" xmlns="http://www.w3.org/2000/svg">
<path d="M24.1581 28.2122L11.0355 19.7501C10.6093 19.4756 10.0557 19.5044 9.66082 19.8218L0.839062 26.9213C0.214422 27.4237 0.264982 28.3914 0.938902 28.826L14.0615 37.2881C14.4877 37.5626 15.0413 37.5338 15.4362 37.2164L24.2586 30.1169C24.8832 29.6138 24.832 28.6468 24.1581 28.2122Z" fill="#4E85E5"/>
<path d="M27.7417 30.1167L36.5641 37.2163C36.9589 37.5343 37.5125 37.5631 37.9388 37.2879L51.0613 28.8258C51.7353 28.3913 51.7865 27.4242 51.1612 26.9212L42.3381 19.8217C41.9433 19.5036 41.3897 19.4748 40.9634 19.75L27.8415 28.2121C27.1676 28.6466 27.1164 29.6137 27.7417 30.1167Z" fill="#4E85E5"/>
<path d="M24.2582 7.89416L15.4358 0.794643C15.0409 0.476563 14.4873 0.447763 14.0611 0.722963L0.939156 9.18504C0.265236 9.6196 0.214035 10.5866 0.839315 11.0897L9.66107 18.1886C10.056 18.5066 10.6096 18.5354 11.0358 18.2602L24.1584 9.79816C24.8323 9.3636 24.8835 8.39656 24.2582 7.89416Z" fill="#4E85E5"/>
<path d="M51.0614 9.18432L37.9395 0.722242C37.5133 0.447682 36.9597 0.476483 36.5648 0.793923L27.7424 7.89344C27.1177 8.39584 27.1683 9.36352 27.8422 9.79808L40.9648 18.2602C41.391 18.5347 41.9446 18.5059 42.3395 18.1885L51.1619 11.089C51.7866 10.5859 51.7354 9.61888 51.0614 9.18432Z" fill="#4E85E5"/>
<path d="M25.3575 31.3629L15.4778 39.2445C15.1194 39.5299 14.6196 39.5555 14.2343 39.3072L11.7991 37.7366C11.0893 37.279 10.1543 37.7885 10.1543 38.6333V39.4825C10.1543 39.8557 10.3489 40.2013 10.6682 40.3945L25.3773 49.311C25.7172 49.5171 26.1434 49.5171 26.4833 49.311L41.1924 40.3945C41.5111 40.2013 41.7063 39.8557 41.7063 39.4825V38.7248C41.7063 37.88 40.7713 37.3705 40.0615 37.8281L37.769 39.3065C37.3837 39.5555 36.882 39.5293 36.5236 39.2425L26.69 31.3654C26.3009 31.0531 25.7473 31.0525 25.3575 31.3629Z" fill="#4E85E5"/>
</svg>
