<svg width="32" height="32" viewBox="0 0 32 32" fill="none" xmlns="http://www.w3.org/2000/svg">
<path d="M5.33337 26.3334H26.6667C27.6381 26.3299 28.5687 25.9425 29.2556 25.2556C29.9424 24.5687 30.3299 23.6381 30.3334 22.6667V9.33341C30.3299 8.36204 29.9424 7.43144 29.2556 6.74457C28.5687 6.0577 27.6381 5.67026 26.6667 5.66675H5.33337C4.36199 5.67026 3.4314 6.0577 2.74453 6.74457C2.05766 7.43144 1.67022 8.36204 1.66671 9.33341V22.6667C1.67022 23.6381 2.05766 24.5687 2.74453 25.2556C3.4314 25.9425 4.36199 26.3299 5.33337 26.3334ZM26.6667 7.66675C27.1087 7.66675 27.5327 7.84234 27.8452 8.1549C28.1578 8.46746 28.3334 8.89139 28.3334 9.33341V22.6667C28.3334 23.1088 28.1578 23.5327 27.8452 23.8453C27.5327 24.1578 27.1087 24.3334 26.6667 24.3334H5.33337C4.89135 24.3334 4.46742 24.1578 4.15486 23.8453C3.8423 23.5327 3.66671 23.1088 3.66671 22.6667V9.33341C3.66671 8.89139 3.8423 8.46746 4.15486 8.1549C4.46742 7.84234 4.89135 7.66675 5.33337 7.66675H26.6667Z" fill="#98A4B5"/>
<path d="M16 17.7999C16.7738 17.7999 17.5334 17.5927 18.2 17.1999L29.84 10.2799C30.0575 10.1443 30.2156 9.93142 30.2823 9.68403C30.3491 9.43663 30.3197 9.17311 30.2 8.94653C30.0669 8.72626 29.853 8.56673 29.6039 8.50197C29.3548 8.4372 29.0903 8.47233 28.8667 8.59987L17.2134 15.5065C16.8599 15.7221 16.454 15.8361 16.04 15.8361C15.6261 15.8361 15.2201 15.7221 14.8667 15.5065L3.21336 8.59987C2.98981 8.47233 2.72527 8.4372 2.47617 8.50197C2.22708 8.56673 2.01315 8.72626 1.88003 8.94653C1.76032 9.17311 1.73091 9.43663 1.79771 9.68403C1.8645 9.93142 2.02255 10.1443 2.24003 10.2799L13.8 17.1999C14.4666 17.5927 15.2263 17.7999 16 17.7999Z" fill="#98A4B5"/>
</svg>
