<svg width="32" height="32" viewBox="0 0 32 32" fill="none" xmlns="http://www.w3.org/2000/svg">
<g clip-path="url(#clip0_492_22)">
<path d="M32 16C32 24.8367 24.8367 32 16 32C7.16333 32 0 24.8367 0 16C0 7.16333 7.16333 0 16 0C24.8367 0 32 7.16333 32 16Z" fill="#83EEE6"/>
<path d="M23.5205 17.7292C23.6189 17.3689 23.5776 16.9773 23.3901 16.6387L17.3154 5.66797C17.0586 5.20435 16.5706 4.9165 16.0405 4.9165C15.5134 4.9165 15.0274 5.20117 14.7695 5.66064L8.61355 16.6304C8.33108 17.1338 8.37258 17.7568 8.71926 18.2185L14.75 26.251C15.0252 26.6177 15.457 26.8335 15.9153 26.8335H16.1653C16.627 26.8335 17.0615 26.6147 17.3364 26.2437L18.4434 24.7788C18.7276 24.3953 18.6431 23.8535 18.2559 23.5745C17.876 23.3008 17.3464 23.3831 17.0676 23.7595L16.0398 25.1172L11.78 19.4434L15.721 20.906C15.8262 20.9451 15.9368 20.9648 16.0471 20.9648C16.1577 20.9648 16.2686 20.9451 16.3738 20.906L20.1331 19.5093L19.3364 20.5449C19.0442 20.9395 19.1428 21.4983 19.5525 21.769C19.9321 22.0195 20.4414 21.9297 20.7122 21.5642L23.2378 18.2754C23.3909 18.1301 23.4905 17.9368 23.5205 17.7292ZM15.1057 18.678L11.8369 17.4646L15.1057 16.2515V18.678ZM16.9807 16.249L20.252 17.4646L16.9807 18.6802V16.249ZM20.9204 15.7129L16.9807 14.249V8.59814L20.9204 15.7129ZM15.1057 8.5603V14.2515L11.0718 15.7485L15.1057 8.5603Z" fill="white"/>
</g>
<defs>
<clipPath id="clip0_492_22">
<rect width="32" height="32" fill="white"/>
</clipPath>
</defs>
</svg>
