<svg width="32" height="32" viewBox="0 0 32 32" fill="none" xmlns="http://www.w3.org/2000/svg">
<path d="M24.0001 30C23.8166 30 23.6324 29.9497 23.4704 29.8482L16.0001 25.1793L8.52987 29.8482C8.18862 30.0612 7.75162 30.0485 7.42287 29.8165C7.09387 29.584 6.93661 29.1763 7.02387 28.7833L8.89362 20.3687L2.34912 14.7592C2.04712 14.5 1.92737 14.086 2.04462 13.7055C2.16187 13.3247 2.49387 13.0503 2.88987 13.0063L11.3196 12.0693L15.0866 3.59375C15.2466 3.233 15.6051 3 16.0001 3C16.3951 3 16.7536 3.233 16.9136 3.59375L20.6806 12.0693L29.1104 13.0063C29.5064 13.0503 29.8384 13.3245 29.9556 13.7055C30.0729 14.0857 29.9531 14.5 29.6509 14.7592L23.1066 20.3687L24.9764 28.7833C25.0639 29.1763 24.9066 29.584 24.5774 29.8165C24.4049 29.9385 24.2029 30 24.0001 30ZM16.0001 23C16.1841 23 16.3679 23.0508 16.5299 23.1518L22.5059 26.887L21.0239 20.2165C20.9439 19.8562 21.0689 19.4807 21.3491 19.2405L26.6006 14.7395L19.8896 13.9935C19.5361 13.9545 19.2304 13.7308 19.0864 13.406L16.0001 6.4625L12.9136 13.4062C12.7696 13.731 12.4639 13.9545 12.1104 13.9937L5.39937 14.7397L10.6509 19.2407C10.9311 19.481 11.0561 19.8565 10.9761 20.2167L9.49412 26.8873L15.4701 23.152C15.6324 23.0508 15.8161 23 16.0001 23Z" fill="#98A4B5"/>
</svg>
