<svg width="32" height="32" viewBox="0 0 32 32" fill="none" xmlns="http://www.w3.org/2000/svg">
<path d="M27 7.5H13.8L12.07 5.84C11.5139 5.30396 10.7724 5.00308 10 5H5C4.20435 5 3.44129 5.31607 2.87868 5.87868C2.31607 6.44129 2 7.20435 2 8V24C2 24.7956 2.31607 25.5587 2.87868 26.1213C3.44129 26.6839 4.20435 27 5 27H27C27.7956 27 28.5587 26.6839 29.1213 26.1213C29.6839 25.5587 30 24.7956 30 24V10.5C30 9.70435 29.6839 8.94129 29.1213 8.37868C28.5587 7.81607 27.7956 7.5 27 7.5ZM28 24C28 24.2652 27.8946 24.5196 27.7071 24.7071C27.5196 24.8946 27.2652 25 27 25H5C4.73478 25 4.48043 24.8946 4.29289 24.7071C4.10536 24.5196 4 24.2652 4 24V8C4 7.73478 4.10536 7.48043 4.29289 7.29289C4.48043 7.10536 4.73478 7 5 7H10C10.2609 6.99843 10.5121 7.09892 10.7 7.28L12.7 9.22C12.8854 9.39868 13.1325 9.49897 13.39 9.5H27C27.2652 9.5 27.5196 9.60536 27.7071 9.79289C27.8946 9.98043 28 10.2348 28 10.5V24Z" fill="#01A2FD"/>
</svg>
