<svg width="24" height="24" viewBox="0 0 24 24" fill="none" xmlns="http://www.w3.org/2000/svg">
<path d="M4.875 3.375H7.125C7.42337 3.375 7.70952 3.25647 7.9205 3.0455C8.13147 2.83452 8.25 2.54837 8.25 2.25C8.25 1.95163 8.13147 1.66548 7.9205 1.4545C7.70952 1.24353 7.42337 1.125 7.125 1.125H2.25C1.95163 1.125 1.66548 1.24353 1.4545 1.4545C1.24353 1.66548 1.125 1.95163 1.125 2.25V7.125C1.125 7.42337 1.24353 7.70952 1.4545 7.9205C1.66548 8.13147 1.95163 8.25 2.25 8.25C2.54837 8.25 2.83452 8.13147 3.0455 7.9205C3.25647 7.70952 3.375 7.42337 3.375 7.125V4.875L8.8125 10.3125C8.91099 10.411 9.02792 10.4891 9.1566 10.5424C9.28529 10.5957 9.42321 10.6232 9.5625 10.6232C9.70179 10.6232 9.83971 10.5957 9.9684 10.5424C10.0971 10.4891 10.214 10.411 10.3125 10.3125C10.411 10.214 10.4891 10.0971 10.5424 9.9684C10.5957 9.83971 10.6232 9.70179 10.6232 9.5625C10.6232 9.42321 10.5957 9.28529 10.5424 9.1566C10.4891 9.02792 10.411 8.91099 10.3125 8.8125L4.875 3.375Z" fill="#98A4B5"/>
<path d="M10.3125 13.6876C10.214 13.5891 10.0971 13.5109 9.9684 13.4576C9.83971 13.4043 9.70179 13.3769 9.5625 13.3769C9.42321 13.3769 9.28529 13.4043 9.1566 13.4576C9.02792 13.5109 8.91099 13.5891 8.8125 13.6876L3.375 19.1251V16.8751C3.375 16.5767 3.25647 16.2905 3.0455 16.0796C2.83452 15.8686 2.54837 15.7501 2.25 15.7501C1.95163 15.7501 1.66548 15.8686 1.4545 16.0796C1.24353 16.2905 1.125 16.5767 1.125 16.8751V21.7501C1.125 22.0484 1.24353 22.3346 1.4545 22.5456C1.66548 22.7565 1.95163 22.8751 2.25 22.8751H7.125C7.42337 22.8751 7.70952 22.7565 7.9205 22.5456C8.13147 22.3346 8.25 22.0484 8.25 21.7501C8.25 21.4517 8.13147 21.1655 7.9205 20.9546C7.70952 20.7436 7.42337 20.6251 7.125 20.6251H4.875L10.3125 15.1876C10.411 15.0891 10.4891 14.9721 10.5424 14.8435C10.5957 14.7148 10.6232 14.5768 10.6232 14.4376C10.6232 14.2983 10.5957 14.1603 10.5424 14.0317C10.4891 13.903 10.411 13.7861 10.3125 13.6876Z" fill="#98A4B5"/>
<path d="M21.7498 1.125H16.8748C16.5765 1.125 16.2903 1.24353 16.0794 1.4545C15.8684 1.66548 15.7498 1.95163 15.7498 2.25C15.7498 2.54837 15.8684 2.83452 16.0794 3.0455C16.2903 3.25647 16.5765 3.375 16.8748 3.375H19.1248L13.6873 8.8125C13.5889 8.91099 13.5107 9.02792 13.4574 9.1566C13.4041 9.28529 13.3767 9.42321 13.3767 9.5625C13.3767 9.70179 13.4041 9.83971 13.4574 9.9684C13.5107 10.0971 13.5889 10.214 13.6873 10.3125C13.7858 10.411 13.9028 10.4891 14.0314 10.5424C14.1601 10.5957 14.2981 10.6232 14.4373 10.6232C14.5766 10.6232 14.7146 10.5957 14.8432 10.5424C14.9719 10.4891 15.0889 10.411 15.1873 10.3125L20.6248 4.875V7.125C20.6248 7.42337 20.7434 7.70952 20.9544 7.9205C21.1653 8.13147 21.4515 8.25 21.7498 8.25C22.0482 8.25 22.3344 8.13147 22.5453 7.9205C22.7563 7.70952 22.8748 7.42337 22.8748 7.125V2.25C22.8748 1.95163 22.7563 1.66548 22.5453 1.4545C22.3344 1.24353 22.0482 1.125 21.7498 1.125Z" fill="#98A4B5"/>
<path d="M21.7498 15.7501C21.4515 15.7501 21.1653 15.8686 20.9544 16.0796C20.7434 16.2905 20.6248 16.5767 20.6248 16.8751V19.1251L15.1873 13.6876C15.0889 13.5891 14.9719 13.5109 14.8432 13.4576C14.7146 13.4043 14.5766 13.3769 14.4373 13.3769C14.2981 13.3769 14.1601 13.4043 14.0314 13.4576C13.9028 13.5109 13.7858 13.5891 13.6873 13.6876C13.5889 13.7861 13.5107 13.903 13.4574 14.0317C13.4041 14.1603 13.3767 14.2983 13.3767 14.4376C13.3767 14.5768 13.4041 14.7148 13.4574 14.8435C13.5107 14.9721 13.5889 15.0891 13.6873 15.1876L19.1248 20.6251H16.8748C16.5765 20.6251 16.2903 20.7436 16.0794 20.9546C15.8684 21.1655 15.7498 21.4517 15.7498 21.7501C15.7498 22.0484 15.8684 22.3346 16.0794 22.5456C16.2903 22.7565 16.5765 22.8751 16.8748 22.8751H21.7498C22.0482 22.8751 22.3344 22.7565 22.5453 22.5456C22.7563 22.3346 22.8748 22.0484 22.8748 21.7501V16.8751C22.8748 16.5767 22.7563 16.2905 22.5453 16.0796C22.3344 15.8686 22.0482 15.7501 21.7498 15.7501Z" fill="#98A4B5"/>
</svg>
