<svg width="32" height="32" viewBox="0 0 32 32" fill="none" xmlns="http://www.w3.org/2000/svg">
<path d="M25.52 29H6.48C5.55705 29 4.6719 28.6334 4.01927 27.9807C3.36664 27.3281 3 26.4429 3 25.52V6.47999C3 5.55704 3.36664 4.67189 4.01927 4.01926C4.6719 3.36663 5.55705 2.99999 6.48 2.99999H25.52C26.443 2.99999 27.3281 3.36663 27.9807 4.01926C28.6334 4.67189 29 5.55704 29 6.47999V25.52C29 26.4429 28.6334 27.3281 27.9807 27.9807C27.3281 28.6334 26.443 29 25.52 29ZM6.48 4.99999C6.08748 4.99999 5.71104 5.15592 5.43348 5.43347C5.15593 5.71103 5 6.08747 5 6.47999V25.52C5 25.9125 5.15593 26.289 5.43348 26.5665C5.71104 26.8441 6.08748 27 6.48 27H25.52C25.9125 27 26.289 26.8441 26.5665 26.5665C26.8441 26.289 27 25.9125 27 25.52V6.47999C27 6.08747 26.8441 5.71103 26.5665 5.43347C26.289 5.15592 25.9125 4.99999 25.52 4.99999H6.48Z" fill="#98A4B5"/>
<path d="M4.00046 25.08C3.85642 25.0795 3.71413 25.0484 3.58308 24.9886C3.45202 24.9288 3.33522 24.8418 3.24046 24.7333C3.15517 24.6328 3.09059 24.5164 3.05044 24.3909C3.01029 24.2653 2.99536 24.133 3.00651 24.0017C3.01767 23.8703 3.05468 23.7425 3.11542 23.6255C3.17617 23.5085 3.25944 23.4047 3.36046 23.32L10.1871 17.56C10.6968 17.1298 11.3492 16.9062 12.0156 16.9334C12.6821 16.9605 13.3141 17.2364 13.7871 17.7066L17.0271 20.9466C17.1479 21.0499 17.3016 21.1067 17.4605 21.1067C17.6194 21.1067 17.773 21.0499 17.8938 20.9466L21.0405 18.6666C21.5067 18.3077 22.0787 18.113 22.6671 18.113C23.2556 18.113 23.8275 18.3077 24.2938 18.6666L28.6271 22.12C28.7304 22.2023 28.8165 22.3041 28.8805 22.4197C28.9444 22.5352 28.985 22.6623 28.9998 22.7935C29.0147 22.9247 29.0036 23.0576 28.9671 23.1846C28.9306 23.3115 28.8694 23.43 28.7871 23.5333C28.7048 23.6366 28.603 23.7227 28.4874 23.7866C28.3719 23.8506 28.2448 23.8912 28.1136 23.906C27.9824 23.9209 27.8495 23.9097 27.7225 23.8732C27.5956 23.8367 27.4771 23.7756 27.3738 23.6933L23.0538 20.2266C22.9372 20.1369 22.7942 20.0882 22.6471 20.0882C22.5 20.0882 22.357 20.1369 22.2405 20.2266L19.0938 22.6666C18.5816 23.0512 17.9481 23.2386 17.3091 23.1946C16.6701 23.1505 16.0683 22.8779 15.6138 22.4266L12.3738 19.12C12.2513 19.0094 12.0921 18.9482 11.9271 18.9482C11.7621 18.9482 11.603 19.0094 11.4805 19.12L4.64046 24.8533C4.46186 25.0043 4.23428 25.0849 4.00046 25.08Z" fill="#98A4B5"/>
<path d="M19.9997 15.6667C19.2745 15.6667 18.5656 15.4517 17.9626 15.0488C17.3596 14.6459 16.8896 14.0732 16.6121 13.4032C16.3346 12.7332 16.262 11.996 16.4035 11.2847C16.5449 10.5735 16.8942 9.92012 17.407 9.40733C17.9197 8.89454 18.5731 8.54532 19.2843 8.40384C19.9956 8.26237 20.7328 8.33498 21.4028 8.6125C22.0728 8.89002 22.6455 9.35999 23.0484 9.96297C23.4513 10.5659 23.6663 11.2749 23.6663 12.0001C23.6663 12.9725 23.28 13.9051 22.5924 14.5928C21.9048 15.2804 20.9721 15.6667 19.9997 15.6667ZM19.9997 10.3334C19.67 10.3334 19.3478 10.4311 19.0737 10.6143C18.7996 10.7974 18.586 11.0577 18.4599 11.3623C18.3337 11.6668 18.3007 12.0019 18.365 12.3252C18.4293 12.6485 18.5881 12.9455 18.8212 13.1786C19.0542 13.4117 19.3512 13.5704 19.6745 13.6347C19.9978 13.699 20.3329 13.666 20.6375 13.5399C20.942 13.4137 21.2023 13.2001 21.3855 12.926C21.5686 12.6519 21.6663 12.3297 21.6663 12.0001C21.6663 11.558 21.4907 11.1341 21.1782 10.8215C20.8656 10.509 20.4417 10.3334 19.9997 10.3334Z" fill="#98A4B5"/>
</svg>
