<svg width="24" height="24" viewBox="0 0 24 24" fill="none" xmlns="http://www.w3.org/2000/svg">
<path d="M20.25 3.75H2.24999C2.09384 3.75048 1.94172 3.7997 1.81488 3.89078C1.68803 3.98186 1.59278 4.11026 1.54241 4.25807C1.49204 4.40588 1.48906 4.56573 1.53389 4.71531C1.57872 4.8649 1.66913 4.99676 1.79249 5.0925L10.7925 12L1.79249 18.9075C1.66913 19.0032 1.57872 19.1351 1.53389 19.2847C1.48906 19.4343 1.49204 19.5941 1.54241 19.7419C1.59278 19.8897 1.68803 20.0181 1.81488 20.1092C1.94172 20.2003 2.09384 20.2495 2.24999 20.25H20.25C20.8467 20.25 21.419 20.0129 21.841 19.591C22.2629 19.169 22.5 18.5967 22.5 18V6C22.5 5.40326 22.2629 4.83097 21.841 4.40901C21.419 3.98705 20.8467 3.75 20.25 3.75Z" fill="#FCDD80"/>
</svg>
