<svg width="32" height="32" viewBox="0 0 32 32" fill="none" xmlns="http://www.w3.org/2000/svg">
<path d="M26.9998 5H2.99983C2.79162 5.00065 2.5888 5.06627 2.41968 5.18771C2.25055 5.30915 2.12354 5.48035 2.05638 5.67743C1.98922 5.87451 1.98525 6.08764 2.04503 6.28709C2.1048 6.48653 2.22534 6.66235 2.38983 6.79L14.3898 16L2.38983 25.21C2.22534 25.3377 2.1048 25.5135 2.04503 25.7129C1.98525 25.9124 1.98922 26.1255 2.05638 26.3226C2.12354 26.5197 2.25055 26.6909 2.41968 26.8123C2.5888 26.9337 2.79162 26.9994 2.99983 27H26.9998C27.7955 27 28.5585 26.6839 29.1211 26.1213C29.6838 25.5587 29.9998 24.7956 29.9998 24V8C29.9998 7.20435 29.6838 6.44129 29.1211 5.87868C28.5585 5.31607 27.7955 5 26.9998 5ZM27.9998 24C27.9998 24.2652 27.8945 24.5196 27.7069 24.7071C27.5194 24.8946 27.265 25 26.9998 25H5.93983L16.6098 16.79C16.7303 16.6965 16.8277 16.5767 16.8948 16.4398C16.9619 16.3029 16.9967 16.1525 16.9967 16C16.9967 15.8475 16.9619 15.6971 16.8948 15.5602C16.8277 15.4233 16.7303 15.3035 16.6098 15.21L5.93983 7H26.9998C27.265 7 27.5194 7.10536 27.7069 7.29289C27.8945 7.48043 27.9998 7.73478 27.9998 8V24Z" fill="#98A4B5"/>
</svg>
