<svg width="32" height="32" viewBox="0 0 32 32" fill="none" xmlns="http://www.w3.org/2000/svg">
<path d="M29.41 19.09L24.41 8.09C24.3311 7.91455 24.2033 7.76557 24.0419 7.66092C23.8805 7.55628 23.6924 7.5004 23.5 7.5H20C19.7348 7.5 19.4804 7.60536 19.2929 7.79289C19.1054 7.98043 19 8.23478 19 8.5C19 8.76522 19.1054 9.01957 19.2929 9.20711C19.4804 9.39464 19.7348 9.5 20 9.5H22.855L26.945 18.5H20.5C20.2348 18.5 19.9804 18.6054 19.7929 18.7929C19.6054 18.9804 19.5 19.2348 19.5 19.5V22H12.5V19.5C12.5 19.2348 12.3946 18.9804 12.2071 18.7929C12.0196 18.6054 11.7652 18.5 11.5 18.5H5.5L9.18 9.5H12C12.2652 9.5 12.5196 9.39464 12.7071 9.20711C12.8946 9.01957 13 8.76522 13 8.5C13 8.23478 12.8946 7.98043 12.7071 7.79289C12.5196 7.60536 12.2652 7.5 12 7.5H8.5C8.30172 7.5 8.10792 7.55894 7.94322 7.66933C7.77851 7.77973 7.65035 7.9366 7.575 8.12L3.075 19.12C3.02547 19.2406 3 19.3697 3 19.5V28.5C3 28.7652 3.10536 29.0196 3.29289 29.2071C3.48043 29.3946 3.73478 29.5 4 29.5H28.5C28.7652 29.5 29.0196 29.3946 29.2071 29.2071C29.3946 29.0196 29.5 28.7652 29.5 28.5V19.5C29.4993 19.3585 29.4687 19.2188 29.41 19.09ZM5 27.5V20.5H10.5V23C10.5 23.2652 10.6054 23.5196 10.7929 23.7071C10.9804 23.8946 11.2348 24 11.5 24H20.5C20.7652 24 21.0196 23.8946 21.2071 23.7071C21.3946 23.5196 21.5 23.2652 21.5 23V20.5H27.5V27.5H5Z" fill="#01A2FD"/>
<path d="M11.7951 12.295C11.7021 12.3879 11.6284 12.4982 11.5781 12.6196C11.5277 12.741 11.5018 12.8711 11.5018 13.0025C11.5018 13.1339 11.5277 13.264 11.5781 13.3854C11.6284 13.5068 11.7021 13.6171 11.7951 13.71L15.2951 17.21C15.388 17.303 15.4983 17.3767 15.6197 17.4271C15.7411 17.4774 15.8712 17.5033 16.0026 17.5033C16.134 17.5033 16.2642 17.4774 16.3856 17.4271C16.5069 17.3767 16.6172 17.303 16.7101 17.21L20.2101 13.71C20.3977 13.5224 20.5032 13.2679 20.5032 13.0025C20.5032 12.7371 20.3977 12.4826 20.2101 12.295C20.0225 12.1074 19.768 12.0019 19.5026 12.0019C19.2372 12.0019 18.9827 12.1074 18.7951 12.295L17.0001 14.09V3.5C17.0001 3.23478 16.8948 2.98043 16.7072 2.79289C16.5197 2.60536 16.2653 2.5 16.0001 2.5C15.7349 2.5 15.4805 2.60536 15.293 2.79289C15.1055 2.98043 15.0001 3.23478 15.0001 3.5V14.09L13.2051 12.295C13.0178 12.1087 12.7643 12.0042 12.5001 12.0042C12.2359 12.0042 11.9825 12.1087 11.7951 12.295Z" fill="#01A2FD"/>
</svg>
