<svg width="32" height="32" viewBox="0 0 32 32" fill="none" xmlns="http://www.w3.org/2000/svg">
<path d="M11 17C11 17.11 11.16 18 13 18C16.16 18 17 20 17 21C17 22 16.34 23.55 14 23.92V25C14 25.2652 13.8946 25.5196 13.7071 25.7071C13.5196 25.8946 13.2652 26 13 26C12.7348 26 12.4804 25.8946 12.2929 25.7071C12.1054 25.5196 12 25.2652 12 25V23.92C11.5291 23.8719 11.0726 23.7304 10.6571 23.5037C10.2415 23.2771 9.87537 22.9699 9.58 22.6C9.22534 22.1398 9.02264 21.5806 9 21C9 20.7348 9.10536 20.4804 9.29289 20.2929C9.48043 20.1054 9.73478 20 10 20C10.2652 20 10.5196 20.1054 10.7071 20.2929C10.8946 20.4804 11 20.7348 11 21C11 21.14 11.16 22 13 22C15 22 15 21 15 21C15 21 14.84 20 13 20C9.84 20 9 18 9 17C9 16 9.66 14.48 12 14.12V13C12 12.7348 12.1054 12.4804 12.2929 12.2929C12.4804 12.1054 12.7348 12 13 12C13.2652 12 13.5196 12.1054 13.7071 12.2929C13.8946 12.4804 14 12.7348 14 13V14.12C16.34 14.48 17 16.12 17 17C17 17.2652 16.8946 17.5196 16.7071 17.7071C16.5196 17.8946 16.2652 18 16 18C15.7348 18 15.4804 17.8946 15.2929 17.7071C15.1054 17.5196 15 17.2652 15 17C15 16.82 14.82 16 13 16C11.18 16 11 16.87 11 17ZM27 10V27C27 27.7956 26.6839 28.5587 26.1213 29.1213C25.5587 29.6839 24.7956 30 24 30H8C7.20435 30 6.44129 29.6839 5.87868 29.1213C5.31607 28.5587 5 27.7956 5 27V5C5 4.20435 5.31607 3.44129 5.87868 2.87868C6.44129 2.31607 7.20435 2 8 2H20C20.1444 1.99999 20.2872 2.03127 20.4184 2.09169C20.5496 2.15211 20.6661 2.24023 20.76 2.35L26.76 9.35C26.9149 9.53114 27 9.76166 27 10ZM21 9H23.83L21 5.7V9ZM25 11H20C19.7352 10.9963 19.4816 10.8927 19.29 10.71C19.1973 10.6166 19.124 10.5057 19.0742 10.3839C19.0245 10.2621 18.9992 10.1316 19 10V4H8C7.73478 4 7.48043 4.10536 7.29289 4.29289C7.10536 4.48043 7 4.73478 7 5V27C7 27.2652 7.10536 27.5196 7.29289 27.7071C7.48043 27.8946 7.73478 28 8 28H24C24.2652 28 24.5196 27.8946 24.7071 27.7071C24.8946 27.5196 25 27.2652 25 27V11ZM16 6H10C9.73478 6 9.48043 6.10536 9.29289 6.29289C9.10536 6.48043 9 6.73478 9 7C9 7.26522 9.10536 7.51957 9.29289 7.70711C9.48043 7.89464 9.73478 8 10 8H16C16.2652 8 16.5196 7.89464 16.7071 7.70711C16.8946 7.51957 17 7.26522 17 7C17 6.73478 16.8946 6.48043 16.7071 6.29289C16.5196 6.10536 16.2652 6 16 6Z" fill="#98A4B5"/>
</svg>
