<svg width="32" height="32" viewBox="0 0 32 32" fill="none" xmlns="http://www.w3.org/2000/svg">
<path d="M27.531 30H19.469C18.108 30 17 28.892 17 27.531V17.469C17 16.108 18.108 15 19.469 15H27.531C28.892 15 30 16.108 30 17.469V27.531C30 28.892 28.892 30 27.531 30ZM19.469 17C19.21 17 19 17.21 19 17.469V27.531C19 27.79 19.21 28 19.469 28H27.531C27.79 28 28 27.79 28 27.531V17.469C28 17.21 27.79 17 27.531 17H19.469Z" fill="#98A4B5"/>
<path d="M27.531 13H19.469C18.108 13 17 11.892 17 10.531V4.469C17 3.108 18.108 2 19.469 2H27.531C28.892 2 30 3.108 30 4.469V10.531C30 11.892 28.892 13 27.531 13ZM19.469 4C19.21 4 19 4.21 19 4.469V10.531C19 10.79 19.21 11 19.469 11H27.531C27.79 11 28 10.79 28 10.531V4.469C28 4.21 27.79 4 27.531 4H19.469Z" fill="#98A4B5"/>
<path d="M12.531 17H4.469C3.108 17 2 15.892 2 14.531V4.469C2 3.108 3.108 2 4.469 2H12.531C13.892 2 15 3.108 15 4.469V14.531C15 15.892 13.892 17 12.531 17ZM4.469 4C4.21 4 4 4.21 4 4.469V14.531C4 14.79 4.21 15 4.469 15H12.531C12.79 15 13 14.79 13 14.531V4.469C13 4.21 12.79 4 12.531 4H4.469Z" fill="#98A4B5"/>
<path d="M12.531 30H4.469C3.108 30 2 28.892 2 27.531V21.469C2 20.108 3.108 19 4.469 19H12.531C13.892 19 15 20.108 15 21.469V27.531C15 28.892 13.892 30 12.531 30ZM4.469 21C4.21 21 4 21.21 4 21.469V27.531C4 27.79 4.21 28 4.469 28H12.531C12.79 28 13 27.79 13 27.531V21.469C13 21.21 12.79 21 12.531 21H4.469Z" fill="#98A4B5"/>
</svg>
