<svg width="22" height="24" viewBox="0 0 22 24" fill="none" xmlns="http://www.w3.org/2000/svg">
<path d="M21.4995 6.75C21.4995 8.35275 20.8755 9.8595 19.7423 10.9928L8.93479 21.9285C8.05579 22.8075 6.90154 23.247 5.74804 23.247C4.59604 23.247 3.44404 22.8083 2.56729 21.9315C0.813036 20.1765 0.813036 17.322 2.56729 15.5677L10.3748 7.8045C11.547 6.63975 13.41 6.6015 14.5298 7.71975C15.0765 8.2665 15.3645 9.0045 15.3413 9.79875C15.318 10.5757 14.9978 11.3123 14.439 11.871L7.02979 19.2803C6.73654 19.5735 6.26254 19.5735 5.96929 19.2803C5.67604 18.987 5.67604 18.513 5.96929 18.2197L13.3785 10.8105C13.6658 10.5232 13.8308 10.1482 13.842 9.7545C13.8533 9.378 13.7205 9.0315 13.4693 8.78025C12.933 8.24625 12.0195 8.2845 11.433 8.868L3.62629 16.6298C2.45854 17.7983 2.45854 19.7017 3.62779 20.871C4.79779 22.0402 6.70054 22.0402 7.87054 20.871L18.678 9.93525C19.5315 9.08175 19.9995 7.95225 19.9995 6.75C19.9995 5.54775 19.5315 4.41825 18.6818 3.5685C17.8313 2.718 16.7018 2.25 15.4995 2.25C14.2973 2.25 13.1678 2.718 12.3173 3.5685L1.77829 14.0325C1.48354 14.3242 1.00954 14.3228 0.717786 14.028C0.426036 13.734 0.427536 13.26 0.721536 12.9675L11.259 2.50575C12.39 1.374 13.8968 0.75 15.4995 0.75C17.1023 0.75 18.609 1.374 19.7423 2.508C20.8755 3.6405 21.4995 5.14725 21.4995 6.75Z" fill="#98A4B5"/>
</svg>
