<svg width="32" height="32" viewBox="0 0 32 32" fill="none" xmlns="http://www.w3.org/2000/svg">
<g clip-path="url(#clip0_492_28)">
<path d="M32 16C32 24.8367 24.8367 32 16 32C7.16333 32 0 24.8367 0 16C0 7.16333 7.16333 0 16 0C24.8367 0 32 7.16333 32 16Z" fill="#01A2FD"/>
<path d="M16 4.96021C9.9126 4.96021 4.96021 9.9126 4.96021 16C4.96021 22.0874 9.9126 27.0398 16 27.0398C18.0188 27.0398 19.9939 26.4897 21.7124 25.4487C22.1553 25.1804 22.2966 24.604 22.0286 24.1611C21.7603 23.7183 21.1838 23.5767 20.741 23.845C19.3154 24.7085 17.676 25.1648 16 25.1648C10.9465 25.1648 6.83496 21.0535 6.83496 16C6.83496 10.9465 10.9465 6.83521 16 6.83521C21.0535 6.83521 25.1648 10.9465 25.1648 16C25.1648 17.8069 24.6274 19.5659 23.6106 21.0867C23.323 21.5171 23.4385 22.0994 23.8689 22.387C24.2993 22.6748 24.8816 22.5591 25.1694 22.1287C26.3931 20.2983 27.0398 18.1792 27.0398 16C27.0398 9.9126 22.0874 4.96021 16 4.96021Z" fill="white"/>
<path d="M12.0517 21.1053C12.4431 21.6124 13.0346 21.9031 13.6752 21.9031H20.1091C20.6269 21.9031 21.0466 21.4835 21.0466 20.9656C21.0466 20.4478 20.6269 20.0281 20.1091 20.0281H13.675C13.6037 20.0281 13.5603 19.991 13.5361 19.9598C13.5122 19.9288 13.4873 19.877 13.5053 19.8082L14.5507 15.8211L17.0102 14.9102C17.4958 14.7303 17.7436 14.191 17.5637 13.7054C17.384 13.22 16.8447 12.972 16.3591 13.1519L15.1313 13.6065L16.1359 9.774C16.2673 9.27326 15.9677 8.76081 15.467 8.62947C14.9663 8.49812 14.4536 8.79768 14.3222 9.29865L12.9846 14.4017L10.58 15.2923C10.0947 15.472 9.84688 16.0113 10.0266 16.4969C10.1667 16.8751 10.5249 17.1089 10.906 17.1089C11.0141 17.1089 11.124 17.0901 11.2314 17.0504L12.404 16.6163L11.6916 19.3326C11.5292 19.952 11.6606 20.5982 12.0517 21.1053Z" fill="white"/>
</g>
<defs>
<clipPath id="clip0_492_28">
<rect width="32" height="32" fill="white"/>
</clipPath>
</defs>
</svg>
