<svg width="32" height="32" viewBox="0 0 32 32" fill="none" xmlns="http://www.w3.org/2000/svg">
<path d="M10.4522 5.17843V22.2123C9.46098 21.3281 8.15485 20.7898 6.72517 20.7898C3.63455 20.7898 1.12012 23.3042 1.12012 26.3949C1.12012 29.4856 3.63455 32 6.72517 32C9.81198 32 12.3238 29.4919 12.3302 26.4066H12.3303V12.7172L29.0026 8.49086V17.6905C28.0114 16.8063 26.7053 16.268 25.2756 16.268C22.185 16.268 19.6705 18.7825 19.6705 21.8731C19.6705 24.9638 22.185 27.4782 25.2756 27.4782C28.3663 27.4782 30.8807 24.9637 30.8807 21.8731V0L10.4522 5.17843ZM6.72523 30.1218C4.67024 30.1218 2.9983 28.4499 2.9983 26.3948C2.9983 24.3398 4.67017 22.6678 6.72523 22.6678C8.78029 22.6678 10.4522 24.3397 10.4522 26.3948C10.4522 28.4499 8.78029 30.1218 6.72523 30.1218ZM12.3303 10.7797V6.63986L29.0026 2.41362V6.55343L12.3303 10.7797ZM25.2756 25.6001C23.2206 25.6001 21.5486 23.9281 21.5486 21.8731C21.5486 19.8181 23.2205 18.1462 25.2756 18.1462C27.3306 18.1462 29.0026 19.818 29.0026 21.8731C29.0026 23.9282 27.3307 25.6001 25.2756 25.6001Z" fill="#98A4B5"/>
</svg>
