<svg width="24" height="24" viewBox="0 0 24 24" fill="none" xmlns="http://www.w3.org/2000/svg">
<path d="M21.8 18.3999L20.233 16.3109C19.4353 15.2424 19.003 13.9454 19 12.6119V8.99994C18.998 7.31809 18.3906 5.69318 17.2888 4.42247C16.187 3.15175 14.6646 2.3202 13 2.07994V1.99994C13 1.73472 12.8946 1.48037 12.7071 1.29283C12.5196 1.1053 12.2652 0.999939 12 0.999939C11.7348 0.999939 11.4804 1.1053 11.2929 1.29283C11.1054 1.48037 11 1.73472 11 1.99994V2.07994C9.3354 2.3202 7.81295 3.15175 6.71118 4.42247C5.60941 5.69318 5.00197 7.31809 5 8.99994V12.6119C4.99714 13.9455 4.56518 15.2428 3.768 16.3119L2.2 18.3999C2.08857 18.5485 2.02072 18.7252 2.00404 18.9101C1.98736 19.0951 2.02252 19.281 2.10557 19.4472C2.18863 19.6133 2.31629 19.753 2.47427 19.8506C2.63225 19.9482 2.81429 19.9999 3 19.9999H8.142C8.36027 20.8575 8.85806 21.6179 9.55672 22.161C10.2554 22.7042 11.1151 22.999 12 22.999C12.8849 22.999 13.7446 22.7042 14.4433 22.161C15.1419 21.6179 15.6397 20.8575 15.858 19.9999H21C21.1857 19.9999 21.3678 19.9482 21.5257 19.8506C21.6837 19.753 21.8114 19.6133 21.8944 19.4472C21.9775 19.281 22.0126 19.0951 21.996 18.9101C21.9793 18.7252 21.9114 18.5485 21.8 18.3999ZM12 20.9999C11.6505 20.9989 11.3074 20.9059 11.0052 20.7304C10.7029 20.5549 10.4521 20.303 10.278 19.9999H13.722C13.5479 20.303 13.2971 20.5549 12.9948 20.7304C12.6926 20.9059 12.3495 20.9989 12 20.9999ZM5 17.9999L5.368 17.5099C6.42365 16.0948 6.99585 14.3775 7 12.6119V8.99994C7 7.67386 7.52678 6.40209 8.46447 5.46441C9.40215 4.52672 10.6739 3.99994 12 3.99994C13.3261 3.99994 14.5979 4.52672 15.5355 5.46441C16.4732 6.40209 17 7.67386 17 8.99994V12.6119C17.0036 14.3783 17.5762 16.0966 18.633 17.5119L19 17.9999H5Z" fill="white"/>
</svg>
