<svg width="65" height="44" viewBox="0 0 65 44" fill="none" xmlns="http://www.w3.org/2000/svg">
<path d="M53.3344 16.668C59.7482 17.6414 64.0018 23.3217 64.0018 30.0021C64.0054 32.2602 63.4317 34.4818 62.335 36.4558L37.1201 21.0149L44.5606 17.628C45.945 16.9924 47.4508 16.6648 48.9742 16.668H53.3344Z" fill="#1288DF"/>
<path d="M37.1229 21.0142L62.3377 36.4551C61.1874 38.5417 59.4977 40.2811 57.4453 41.4914C55.3929 42.7017 53.0531 43.3386 50.6704 43.3355H16.0017C13.4364 43.3388 10.9081 42.7237 8.63102 41.5422C6.35397 40.3607 4.39527 38.6478 2.9209 36.5485L37.1229 21.0142Z" fill="#259FEA"/>
<path d="M25.1884 13.6945L37.1224 21.015L2.92038 36.5492C1.01321 33.856 -0.00747366 30.6354 0.000204489 27.3353C-0.0189517 23.5246 1.30834 19.8296 3.74793 16.9021C6.18751 13.9746 9.58263 12.0027 13.3343 11.3344H16.8279C19.7792 11.3339 22.6729 12.1508 25.1884 13.6945Z" fill="#1480DA"/>
<path d="M53.3363 16.6681H48.9761C47.4528 16.6649 45.9469 16.9925 44.5625 17.6282L37.1221 21.015L25.188 13.6946C22.6726 12.1509 19.7788 11.334 16.8275 11.3344H13.334C15.2151 8.05626 17.9368 5.3394 21.2184 3.46422C24.5 1.58904 28.2225 0.623461 32.0018 0.667128C42.0023 0.667128 51.0295 7.38753 53.3363 16.6681Z" fill="#056ABC"/>
</svg>
