<svg width="30" height="30" viewBox="0 0 30 30" fill="none" xmlns="http://www.w3.org/2000/svg">
<path d="M29.035 21.594C28.982 21.55 22.993 17.264 21.368 17.545C20.587 17.683 20.14 18.215 19.245 19.282C19.101 19.454 18.754 19.865 18.486 20.158C17.9203 19.9737 17.3686 19.7491 16.835 19.486C14.0805 18.145 11.855 15.9195 10.514 13.165C10.2509 12.6314 10.0263 12.0797 9.842 11.514C10.136 11.245 10.548 10.898 10.724 10.75C11.785 9.86 12.317 9.413 12.455 8.631C12.738 7.012 8.45 1.018 8.406 0.964C8.21072 0.687056 7.95639 0.456924 7.66137 0.290217C7.36635 0.123509 7.03799 0.0243851 6.7 0C4.962 0 0 6.436 0 7.521C0 7.584 0.0910001 13.988 7.988 22.021C16.012 29.909 22.416 30 22.479 30C23.564 30 30 25.038 30 23.3C29.9756 22.9619 29.8764 22.6334 29.7095 22.3384C29.5426 22.0433 29.3122 21.7891 29.035 21.594ZM22.369 27.994C21.495 27.922 16.121 27.213 9.402 20.612C2.767 13.857 2.076 8.468 2.007 7.633C3.31778 5.57564 4.90079 3.70502 6.713 2.072C6.753 2.112 6.806 2.172 6.874 2.25C8.26383 4.14723 9.46108 6.17827 10.448 8.313C10.1271 8.63587 9.78783 8.94004 9.432 9.224C8.88019 9.64445 8.37348 10.121 7.92 10.646L7.677 10.986L7.749 11.397C7.96063 12.3137 8.28475 13.2008 8.714 14.038C10.2519 17.196 12.8038 19.7475 15.962 21.285C16.799 21.7149 17.6861 22.0393 18.603 22.251L19.014 22.323L19.354 22.08C19.881 21.6245 20.3595 21.1158 20.782 20.562C21.095 20.188 21.514 19.689 21.672 19.548C23.8128 20.534 25.849 21.7326 27.75 23.126C27.833 23.196 27.891 23.25 27.93 23.285C26.2972 25.0978 24.4266 26.6811 22.369 27.992V27.994Z" fill="#98A4B5"/>
</svg>
