<svg width="24" height="24" viewBox="0 0 24 24" fill="none" xmlns="http://www.w3.org/2000/svg">
<path d="M12 22.875C11.7141 22.875 11.4398 22.7631 11.2377 22.5639C11.0355 22.3648 10.9219 22.0947 10.9219 21.813V2.18701C10.9219 1.90535 11.0355 1.63522 11.2377 1.43606C11.4398 1.23689 11.7141 1.125 12 1.125C12.2859 1.125 12.5602 1.23689 12.7623 1.43606C12.9645 1.63522 13.0781 1.90535 13.0781 2.18701V21.813C13.0781 22.0947 12.9645 22.3648 12.7623 22.5639C12.5602 22.7631 12.2859 22.875 12 22.875Z" fill="#01A2FD"/>
<path d="M21.813 13.0781H2.18701C1.90535 13.0781 1.63522 12.9645 1.43606 12.7623C1.23689 12.5602 1.125 12.2859 1.125 12C1.125 11.7141 1.23689 11.4398 1.43606 11.2377C1.63522 11.0355 1.90535 10.9219 2.18701 10.9219H21.813C22.0947 10.9219 22.3648 11.0355 22.5639 11.2377C22.7631 11.4398 22.875 11.7141 22.875 12C22.875 12.2859 22.7631 12.5602 22.5639 12.7623C22.3648 12.9645 22.0947 13.0781 21.813 13.0781Z" fill="#01A2FD"/>
</svg>
