<svg width="24" height="24" viewBox="0 0 24 24" fill="none" xmlns="http://www.w3.org/2000/svg">
<g clip-path="url(#clip0_560_1180)">
<path d="M22.3713 6.375H20.9945C21.0025 6.27216 21 6.65855 21 1.62867C21 0.730594 20.2694 0 19.3713 0H4.62867C3.73059 0 3 0.730594 3 1.62867C3 6.64772 2.99742 6.27141 3.00558 6.375H1.62867C0.730594 6.375 0 7.10559 0 8.00367V16.7463C0 17.6444 0.730594 18.375 1.62867 18.375H5.625V22.3713C5.625 23.2694 6.35559 24 7.25367 24H16.7463C17.6444 24 18.375 23.2694 18.375 22.3713V18.375H22.3713C23.2694 18.375 24 17.6444 24 16.7463V8.00367C24 7.10559 23.2694 6.375 22.3713 6.375ZM4.5 6.24633V1.62867C4.5 1.5577 4.5577 1.5 4.62867 1.5H19.3713C19.4423 1.5 19.5 1.5577 19.5 1.62867V6.24633C19.5 6.3173 19.4423 6.375 19.3713 6.375H4.62867C4.5577 6.375 4.5 6.3173 4.5 6.24633ZM16.875 22.3713C16.875 22.4423 16.8173 22.5 16.7463 22.5H7.25367C7.1827 22.5 7.125 22.4423 7.125 22.3713V14.7537C7.125 14.6827 7.1827 14.625 7.25367 14.625H16.7463C16.8173 14.625 16.875 14.6827 16.875 14.7537V22.3713ZM22.5 16.7463C22.5 16.8173 22.4423 16.875 22.3713 16.875H18.375V14.7537C18.375 13.8556 17.6444 13.125 16.7463 13.125H7.25367C6.35559 13.125 5.625 13.8556 5.625 14.7537V16.875H1.62867C1.5577 16.875 1.5 16.8173 1.5 16.7463V8.00367C1.5 7.9327 1.5577 7.875 1.62867 7.875H22.3713C22.4423 7.875 22.5 7.9327 22.5 8.00367V16.7463Z" fill="#98A4B5"/>
<path d="M20.25 10.5H19.125C18.7108 10.5 18.375 10.1642 18.375 9.75C18.375 9.33581 18.7108 9 19.125 9H20.25C20.6642 9 21 9.33581 21 9.75C21 10.1642 20.6642 10.5 20.25 10.5Z" fill="#98A4B5"/>
<path d="M14.25 17.625H9.75C9.33581 17.625 9 17.2892 9 16.875C9 16.4608 9.33581 16.125 9.75 16.125H14.25C14.6642 16.125 15 16.4608 15 16.875C15 17.2892 14.6642 17.625 14.25 17.625Z" fill="#98A4B5"/>
<path d="M14.25 21H9.75C9.33581 21 9 20.6642 9 20.25C9 19.8358 9.33581 19.5 9.75 19.5H14.25C14.6642 19.5 15 19.8358 15 20.25C15 20.6642 14.6642 21 14.25 21Z" fill="#98A4B5"/>
</g>
<defs>
<clipPath id="clip0_560_1180">
<rect width="24" height="24" fill="white"/>
</clipPath>
</defs>
</svg>
