<svg width="24" height="24" viewBox="0 0 24 24" fill="none" xmlns="http://www.w3.org/2000/svg">
<g clip-path="url(#clip0_383_3577)">
<path d="M16.4944 6.34531C16.0289 5.87454 15.2703 5.8686 14.7974 6.33208L5.92741 15.0986L2.07154 11.1068C1.61165 10.6275 0.850289 10.6118 0.371021 11.0717C-0.1083 11.5316 -0.124032 12.2929 0.335857 12.7722C0.337941 12.7743 0.339973 12.7765 0.342056 12.7786L5.04347 17.6508C5.26847 17.8803 5.57598 18.0103 5.8974 18.0116H5.91064C6.22596 18.0106 6.52832 17.8858 6.75253 17.664L16.4836 8.04234C16.9538 7.5761 16.9586 6.81755 16.4944 6.34531Z" fill="#01A2FD"/>
<path d="M12.2601 17.6508C12.4845 17.8798 12.791 18.0096 13.1116 18.0116H13.1248C13.4402 18.0106 13.7425 17.8858 13.9667 17.664L23.6979 8.04236C24.1389 7.54569 24.0939 6.78553 23.5973 6.34445C23.147 5.94457 22.4705 5.93931 22.0141 6.3321L13.1476 15.0987L12.8313 14.7703C12.3715 14.291 11.6101 14.2752 11.1308 14.7351C10.6515 15.1949 10.6357 15.9563 11.0956 16.4356C11.0977 16.4378 11.0998 16.4399 11.1018 16.4421L12.2601 17.6508Z" fill="#01A2FD"/>
</g>
<defs>
<clipPath id="clip0_383_3577">
<rect width="24" height="24" fill="white"/>
</clipPath>
</defs>
</svg>
