<svg width="32" height="32" viewBox="0 0 32 32" fill="none" xmlns="http://www.w3.org/2000/svg">
<g clip-path="url(#clip0_492_36)">
<path d="M32 16C32 24.8367 24.8367 32 16 32C7.16333 32 0 24.8367 0 16C0 7.16333 7.16333 0 16 0C24.8367 0 32 7.16333 32 16Z" fill="#FD6270"/>
<path d="M18.5215 16.6431C18.5215 16.6318 18.2407 16.6533 18.2063 16.6567C18.0925 16.6682 17.9766 16.7002 17.8621 16.6777C17.7605 16.6577 17.6711 16.5884 17.6006 16.5154C17.3291 16.2349 17.3076 15.7769 17.5466 15.4702C17.6147 15.3831 17.7129 15.2659 17.832 15.2637C17.8899 15.2625 17.947 15.2815 18.0037 15.2903C18.0825 15.3025 18.1626 15.3071 18.2424 15.311C18.4175 15.3196 18.5933 15.314 18.7673 15.2935C18.8115 15.2881 19.2412 15.229 19.239 15.2021C20.6023 14.8313 21.6077 13.5835 21.6077 12.1045C21.6077 10.3342 20.1675 8.89404 18.3972 8.89404C16.627 8.89404 15.1865 10.3342 15.1865 12.1045C15.1865 12.6345 15.3164 13.1345 15.5449 13.5757C15.5444 13.5762 15.5437 13.5767 15.5432 13.5771C15.6213 13.7278 15.7119 13.8733 15.8147 14.0122C15.8352 14.085 15.825 14.2134 15.792 14.3708C15.6982 14.8191 15.2393 15.0906 14.7991 14.9639C14.7063 14.9373 14.6289 14.9094 14.5728 14.8818C14.1296 13.6389 12.9414 12.7466 11.5481 12.7466C9.77783 12.7466 8.33765 14.1868 8.33765 15.957C8.33765 17.7273 9.77783 19.1677 11.5481 19.1677C12.5283 19.1677 13.407 18.7256 13.9963 18.0308C13.9988 18.033 14.0012 18.0354 14.0034 18.0376C14.2107 17.791 14.3811 17.5132 14.5081 17.209C14.5557 17.1584 14.6572 17.106 14.7915 17.0571C15.2065 16.906 15.6638 17.1204 15.8127 17.5361C15.8689 17.6934 15.9065 17.8298 15.9165 17.9229C15.7908 18.0916 15.6833 18.2668 15.5962 18.4458C15.5869 18.4646 15.5789 18.4839 15.5698 18.5029C15.5701 18.5032 15.5703 18.5032 15.5706 18.5034C15.3796 18.9138 15.2722 19.3708 15.2722 19.8525C15.2722 21.6228 16.7126 23.063 18.4829 23.063C20.2532 23.063 21.6934 21.6228 21.6934 19.8525C21.6934 18.0952 20.2739 16.6641 18.5215 16.6431ZM11.5481 17.4553C10.7219 17.4553 10.0498 16.7832 10.0498 15.9573C10.0498 15.1311 10.7219 14.459 11.5481 14.459C11.8027 14.459 12.0422 14.5229 12.2524 14.6353C12.2495 14.6389 12.2468 14.6423 12.2439 14.646C12.4797 14.7698 12.6858 14.957 12.832 15.2019C12.8916 15.3013 12.9402 15.4111 12.981 15.5376C12.9878 15.5583 12.9951 15.5784 13.0027 15.5984C13.031 15.7134 13.0464 15.8335 13.0464 15.9573C13.0464 16.7832 12.3743 17.4553 11.5481 17.4553ZM18.3972 10.6064C19.2234 10.6064 19.8955 11.2786 19.8955 12.1047C19.8955 12.7478 19.4878 13.2976 18.9175 13.5095C18.6423 13.6118 18.3464 13.6257 18.0605 13.5642C17.6631 13.4724 17.3254 13.2227 17.1184 12.8843C17.1172 12.8823 17.116 12.8806 17.115 12.8789C17.1035 12.8599 17.0923 12.8403 17.0815 12.8208C17.0801 12.8184 17.0789 12.8157 17.0774 12.813C16.9636 12.6021 16.8989 12.3608 16.8989 12.1047C16.8989 11.2786 17.571 10.6064 18.3972 10.6064ZM18.4827 21.3508C17.6567 21.3508 16.9846 20.6787 16.9846 19.8525C16.9846 19.1074 17.5315 18.4878 18.2449 18.3735C18.2505 18.3726 18.2561 18.3716 18.2617 18.3708C18.3337 18.3601 18.4077 18.3545 18.4827 18.3545C19.3088 18.3545 19.981 19.0266 19.981 19.8525C19.981 20.6787 19.3088 21.3508 18.4827 21.3508Z" fill="white"/>
<path d="M16 27.0398C9.9126 27.0398 4.96021 22.0874 4.96021 16C4.96021 9.9126 9.9126 4.96021 16 4.96021C22.0874 4.96021 27.0398 9.9126 27.0398 16C27.0398 18.1792 26.3931 20.2983 25.1694 22.1287C24.8816 22.5591 24.2993 22.6748 23.8689 22.387C23.4385 22.0994 23.3228 21.5171 23.6106 21.0867C24.6274 19.5659 25.1648 17.8069 25.1648 16C25.1648 10.9465 21.0535 6.83521 16 6.83521C10.9465 6.83521 6.83496 10.9465 6.83496 16C6.83496 21.0535 10.9463 25.1648 16 25.1648C17.676 25.1648 19.3154 24.7085 20.741 23.845C21.1836 23.5769 21.7603 23.7183 22.0286 24.1611C22.2966 24.604 22.1553 25.1807 21.7124 25.4487C19.9939 26.4897 18.0188 27.0398 16 27.0398Z" fill="white"/>
</g>
<defs>
<clipPath id="clip0_492_36">
<rect width="32" height="32" fill="white"/>
</clipPath>
</defs>
</svg>
