<svg width="32" height="32" viewBox="0 0 32 32" fill="none" xmlns="http://www.w3.org/2000/svg">
<path d="M19.6803 30.2C19.1295 30.1914 18.5912 30.0345 18.1219 29.7459C17.6527 29.4573 17.2698 29.0477 17.0136 28.56L12.3736 20.08C12.2726 19.886 12.1143 19.7277 11.9203 19.6267L3.44028 15.0533C2.90147 14.7606 2.46084 14.3157 2.17346 13.774C1.88607 13.2323 1.76467 12.618 1.82442 12.0077C1.88416 11.3975 2.12241 10.8183 2.50939 10.3427C2.89637 9.86705 3.41493 9.51598 4.00028 9.33334L26.0936 1.96001C26.6515 1.76228 27.2541 1.72664 27.8314 1.85721C28.4088 1.98777 28.9373 2.27921 29.3559 2.69776C29.7744 3.11632 30.0659 3.64487 30.1964 4.22221C30.327 4.79956 30.2913 5.40208 30.0936 5.96001L22.667 28.0667C22.4803 28.6432 22.1277 29.1518 21.6534 29.5289C21.1791 29.906 20.604 30.1348 20.0003 30.1867L19.6803 30.2ZM26.667 3.86667L4.57362 11.24C4.36299 11.3077 4.17714 11.4363 4.03951 11.6095C3.90188 11.7828 3.81864 11.9929 3.80028 12.2133C3.78038 12.4312 3.82549 12.65 3.92991 12.8423C4.03432 13.0345 4.19337 13.1915 4.38695 13.2933L12.8669 17.8667C13.4063 18.1528 13.8475 18.594 14.1336 19.1333L18.667 27.6133C18.7688 27.8069 18.9258 27.966 19.118 28.0704C19.3102 28.1748 19.5291 28.2199 19.747 28.2C19.9674 28.1817 20.1775 28.0984 20.3508 27.9608C20.524 27.8232 20.6526 27.6373 20.7203 27.4267L28.1336 5.33334C28.2199 5.12819 28.2431 4.90197 28.2003 4.68357C28.1575 4.46516 28.0506 4.26446 27.8932 4.10708C27.7358 3.9497 27.5351 3.84278 27.3167 3.79997C27.0983 3.75715 26.8721 3.78037 26.667 3.86667Z" fill="white"/>
<path d="M12.8934 20.1066C12.7617 20.1095 12.6308 20.085 12.5091 20.0345C12.3875 19.9839 12.2777 19.9086 12.1868 19.8132C12.0924 19.7213 12.0174 19.6114 11.9662 19.49C11.915 19.3687 11.8887 19.2383 11.8887 19.1066C11.8887 18.9748 11.915 18.8444 11.9662 18.7231C12.0174 18.6017 12.0924 18.4918 12.1868 18.3999L27.8668 2.66655C28.0613 2.47206 28.325 2.36279 28.6001 2.36279C28.8752 2.36279 29.1389 2.47206 29.3334 2.66655C29.5279 2.86104 29.6372 3.12483 29.6372 3.39988C29.6372 3.67494 29.5279 3.93872 29.3334 4.13322L13.6001 19.8132C13.5078 19.9067 13.3977 19.9808 13.2764 20.0312C13.155 20.0815 13.0248 20.1072 12.8934 20.1066Z" fill="white"/>
</svg>
