<svg width="24" height="24" viewBox="0 0 24 24" fill="none" xmlns="http://www.w3.org/2000/svg">
<path d="M10 1.00006H2C1.73478 1.00006 1.48043 1.10542 1.29289 1.29295C1.10536 1.48049 1 1.73484 1 2.00006V10.0001C1 10.2653 1.10536 10.5196 1.29289 10.7072C1.48043 10.8947 1.73478 11.0001 2 11.0001H10C10.2652 11.0001 10.5196 10.8947 10.7071 10.7072C10.8946 10.5196 11 10.2653 11 10.0001V2.00006C11 1.73484 10.8946 1.48049 10.7071 1.29295C10.5196 1.10542 10.2652 1.00006 10 1.00006ZM9 9.00006H3V3.00006H9V9.00006Z" fill="#01A2FD"/>
<path d="M22 1.00006H14C13.7348 1.00006 13.4804 1.10542 13.2929 1.29295C13.1054 1.48049 13 1.73484 13 2.00006V10.0001C13 10.2653 13.1054 10.5196 13.2929 10.7072C13.4804 10.8947 13.7348 11.0001 14 11.0001H22C22.2652 11.0001 22.5196 10.8947 22.7071 10.7072C22.8946 10.5196 23 10.2653 23 10.0001V2.00006C23 1.73484 22.8946 1.48049 22.7071 1.29295C22.5196 1.10542 22.2652 1.00006 22 1.00006ZM21 9.00006H15V3.00006H21V9.00006Z" fill="#01A2FD"/>
<path d="M10 13.0001H2C1.73478 13.0001 1.48043 13.1054 1.29289 13.293C1.10536 13.4805 1 13.7349 1 14.0001V22.0001C1 22.2653 1.10536 22.5197 1.29289 22.7072C1.48043 22.8947 1.73478 23.0001 2 23.0001H10C10.2652 23.0001 10.5196 22.8947 10.7071 22.7072C10.8946 22.5197 11 22.2653 11 22.0001V14.0001C11 13.7349 10.8946 13.4805 10.7071 13.293C10.5196 13.1054 10.2652 13.0001 10 13.0001ZM9 21.0001H3V15.0001H9V21.0001Z" fill="#01A2FD"/>
<path d="M22 13.0001H14C13.7348 13.0001 13.4804 13.1054 13.2929 13.293C13.1054 13.4805 13 13.7349 13 14.0001V22.0001C13 22.2653 13.1054 22.5197 13.2929 22.7072C13.4804 22.8947 13.7348 23.0001 14 23.0001H22C22.2652 23.0001 22.5196 22.8947 22.7071 22.7072C22.8946 22.5197 23 22.2653 23 22.0001V14.0001C23 13.7349 22.8946 13.4805 22.7071 13.293C22.5196 13.1054 22.2652 13.0001 22 13.0001ZM21 21.0001H15V15.0001H21V21.0001Z" fill="#01A2FD"/>
</svg>
