<svg width="32" height="32" viewBox="0 0 32 32" fill="none" xmlns="http://www.w3.org/2000/svg">
<path d="M5.55249 21.7985C5.29649 21.7985 5.04099 21.701 4.84549 21.5055C4.45499 21.115 4.45499 20.482 4.84549 20.0915L20.4725 4.46451C20.8625 4.07401 21.496 4.07401 21.8865 4.46451C22.277 4.85501 22.277 5.48801 21.8865 5.87851L6.25949 21.5055C6.06449 21.7005 5.80849 21.7985 5.55249 21.7985Z" fill="#98A4B5"/>
<path d="M4.00844 29C3.93894 29 3.86844 28.9925 3.79794 28.9775C3.25795 28.8615 2.91395 28.33 3.02995 27.79L4.57494 20.5885C4.69094 20.0485 5.22494 19.7055 5.76244 19.8205C6.30244 19.9365 6.64644 20.468 6.53044 21.008L4.98544 28.2095C4.88494 28.679 4.46994 29 4.00844 29Z" fill="#98A4B5"/>
<path d="M11.2091 27.455C10.9531 27.455 10.6976 27.3575 10.5021 27.162C10.1116 26.7715 10.1116 26.1385 10.5021 25.748L26.1291 10.1215C26.5191 9.73099 27.1526 9.73099 27.5431 10.1215C27.9336 10.512 27.9336 11.145 27.5431 11.5355L11.9166 27.162C11.7211 27.3575 11.4651 27.455 11.2091 27.455Z" fill="#98A4B5"/>
<path d="M4.00643 28.9999C3.54493 28.9999 3.13043 28.6789 3.02943 28.2094C2.91393 27.6694 3.25743 27.1379 3.79743 27.0219L10.9989 25.4769C11.5394 25.3624 12.0709 25.7054 12.1864 26.2449C12.3019 26.7849 11.9584 27.3164 11.4184 27.4324L4.21693 28.9774C4.14643 28.9929 4.07593 28.9999 4.00643 28.9999Z" fill="#98A4B5"/>
<path d="M24.0076 14.6566C23.7516 14.6566 23.4956 14.5591 23.3006 14.3636L17.6441 8.70712C17.2536 8.31662 17.2536 7.68362 17.6441 7.29312C18.0341 6.90262 18.6681 6.90262 19.0581 7.29312L24.7146 12.9496C25.1051 13.3401 25.1051 13.9731 24.7146 14.3636C24.5196 14.5591 24.2636 14.6566 24.0076 14.6566Z" fill="#98A4B5"/>
<path d="M26.8361 11.8284C26.5801 11.8284 26.3241 11.7309 26.1286 11.5354C25.7381 11.1449 25.7381 10.5119 26.1286 10.1209C26.6851 9.56438 26.9916 8.81088 26.9916 7.99988C26.9916 7.18888 26.6851 6.43538 26.1286 5.87888C25.5716 5.32188 24.8181 5.01538 24.0071 5.01538C23.1961 5.01538 22.4426 5.32188 21.8861 5.87888C21.4961 6.26938 20.8631 6.26988 20.4716 5.87888C20.0811 5.48838 20.0811 4.85538 20.4716 4.46438C21.4056 3.52988 22.6611 3.01538 24.0071 3.01538C25.3526 3.01538 26.6086 3.52988 27.5426 4.46438C28.4771 5.39838 28.9916 6.65388 28.9916 7.99988C28.9916 9.34588 28.4771 10.6014 27.5426 11.5354C27.3481 11.7304 27.0921 11.8284 26.8361 11.8284Z" fill="#98A4B5"/>
</svg>
