<svg width="32" height="32" viewBox="0 0 32 32" fill="none" xmlns="http://www.w3.org/2000/svg">
<path d="M3 7H5V27.48C5.00264 28.4128 5.37434 29.3065 6.0339 29.9661C6.69346 30.6257 7.58725 30.9974 8.52 31H23.52C24.4458 30.9869 25.3294 30.6106 25.9803 29.9521C26.6313 29.2937 26.9975 28.4059 27 27.48V7H29C29.2652 7 29.5196 6.89464 29.7071 6.70711C29.8946 6.51957 30 6.26522 30 6C30 5.73478 29.8946 5.48043 29.7071 5.29289C29.5196 5.10536 29.2652 5 29 5H22V3C22.0002 2.47812 21.7963 1.97684 21.432 1.60317C21.0677 1.22951 20.5717 1.01305 20.05 1H12C11.4696 1 10.9609 1.21071 10.5858 1.58579C10.2107 1.96086 10 2.46957 10 3V5H3C2.73478 5 2.48043 5.10536 2.29289 5.29289C2.10536 5.48043 2 5.73478 2 6C2 6.26522 2.10536 6.51957 2.29289 6.70711C2.48043 6.89464 2.73478 7 3 7ZM12 3H20V5H12V3ZM10 7H25V27.48C25 27.8831 24.8399 28.2697 24.5548 28.5548C24.2697 28.8399 23.8831 29 23.48 29H8.48C8.08384 28.9896 7.70742 28.8248 7.43096 28.5409C7.1545 28.257 6.99986 27.8763 7 27.48V7H10Z" fill="#98A4B5"/>
<path d="M12.6797 25C12.9449 25 13.1993 24.8946 13.3868 24.7071C13.5743 24.5196 13.6797 24.2652 13.6797 24V12C13.6797 11.7348 13.5743 11.4804 13.3868 11.2929C13.1993 11.1054 12.9449 11 12.6797 11C12.4145 11 12.1601 11.1054 11.9726 11.2929C11.785 11.4804 11.6797 11.7348 11.6797 12V24C11.6797 24.2652 11.785 24.5196 11.9726 24.7071C12.1601 24.8946 12.4145 25 12.6797 25Z" fill="#98A4B5"/>
<path d="M19.3203 25C19.5855 25 19.8399 24.8946 20.0274 24.7071C20.215 24.5196 20.3203 24.2652 20.3203 24V12C20.3203 11.7348 20.215 11.4804 20.0274 11.2929C19.8399 11.1054 19.5855 11 19.3203 11C19.0551 11 18.8007 11.1054 18.6132 11.2929C18.4257 11.4804 18.3203 11.7348 18.3203 12V24C18.3203 24.2652 18.4257 24.5196 18.6132 24.7071C18.8007 24.8946 19.0551 25 19.3203 25Z" fill="#98A4B5"/>
</svg>
