<svg width="16" height="16" viewBox="0 0 16 16" fill="none" xmlns="http://www.w3.org/2000/svg">
<path d="M2 14H14V15.3334H2V14Z" fill="#98A4B5"/>
<path d="M13.3333 0.666737H11.3333V2.00007H12V7.3334C12 8.39427 11.5786 9.41168 10.8284 10.1618C10.0783 10.912 9.06087 11.3334 8 11.3334C6.93913 11.3334 5.92172 10.912 5.17157 10.1618C4.42143 9.41168 4 8.39427 4 7.3334V2.00007H4.66667V0.666737H2V2.00007H2.66667V7.3334C2.66667 8.74789 3.22857 10.1044 4.22876 11.1046C5.22896 12.1048 6.58551 12.6667 8 12.6667C9.41449 12.6667 10.771 12.1048 11.7712 11.1046C12.7714 10.1044 13.3333 8.74789 13.3333 7.3334V2.00007H14V0.666737H13.3333Z" fill="#98A4B5"/>
</svg>
