<svg width="32" height="32" viewBox="0 0 32 32" fill="none" xmlns="http://www.w3.org/2000/svg">
<path d="M20.09 15.669C21.849 14.396 23 12.332 23 10C23 6.141 19.86 3 16 3C12.14 3 9 6.141 9 10C9 12.332 10.151 14.396 11.91 15.669C6.742 17.388 3 22.262 3 28C3 28.553 3.448 29 4 29H28C28.552 29 29 28.553 29 28C29 22.262 25.258 17.388 20.09 15.669ZM11 10C11 7.243 13.243 5 16 5C18.757 5 21 7.243 21 10C21 12.757 18.757 15 16 15C13.243 15 11 12.757 11 10ZM5.045 27C5.552 21.401 10.271 17 16 17C21.729 17 26.448 21.401 26.955 27H5.045Z" fill="#98A4B5"/>
</svg>
