<svg width="30" height="20" viewBox="0 0 30 20" fill="none" xmlns="http://www.w3.org/2000/svg">
<path d="M28.33 2.1036C27.8766 1.85893 27.3646 1.74371 26.8502 1.77056C26.3357 1.7974 25.8385 1.96528 25.413 2.2558L20 5.8884V3C19.9991 2.20463 19.6827 1.44209 19.1203 0.879673C18.5579 0.317259 17.7954 0.000899894 17 0H3C2.20463 0.000899894 1.44209 0.317259 0.879674 0.879673C0.317259 1.44209 0.000899894 2.20463 0 3V17C0.000899894 17.7954 0.317259 18.5579 0.879674 19.1203C1.44209 19.6827 2.20463 19.9991 3 20H17C17.7954 19.9991 18.5579 19.6827 19.1203 19.1203C19.6827 18.5579 19.9991 17.7954 20 17V14.1114L25.414 17.7442C25.8385 18.0367 26.3357 18.2057 26.8505 18.2326C27.3653 18.2595 27.8774 18.1431 28.33 17.8964C28.8454 17.6102 29.2732 17.189 29.5674 16.6781C29.8616 16.1672 30.0111 15.5859 30 14.9964V5.004C30.0112 4.41448 29.8617 3.83304 29.5675 3.32206C29.2733 2.81108 28.8455 2.38986 28.33 2.1036ZM18 17C17.9997 17.2651 17.8942 17.5193 17.7068 17.7068C17.5193 17.8942 17.2651 17.9997 17 18H3C2.73488 17.9997 2.48071 17.8942 2.29324 17.7068C2.10578 17.5193 2.00032 17.2651 2 17V3C2.00032 2.73488 2.10578 2.48071 2.29324 2.29324C2.48071 2.10578 2.73488 2.00032 3 2H17C17.2651 2.00032 17.5193 2.10578 17.7068 2.29324C17.8942 2.48071 17.9997 2.73488 18 3V17ZM28 14.996C28.0108 15.2231 27.9596 15.4489 27.8519 15.6492C27.7442 15.8494 27.5841 16.0166 27.3886 16.1328C27.2557 16.208 27.1039 16.2433 26.9514 16.2347C26.799 16.226 26.6522 16.1737 26.5286 16.084L20 11.7032V8.2968L26.5274 3.9168C26.6518 3.82839 26.7986 3.7769 26.951 3.76826C27.1033 3.75963 27.255 3.7942 27.3886 3.868C27.5839 3.98413 27.744 4.15118 27.8517 4.35128C27.9594 4.55139 28.0107 4.77701 28 5.004V14.996Z" fill="#98A4B5"/>
</svg>
