<svg width="32" height="32" viewBox="0 0 32 32" fill="none" xmlns="http://www.w3.org/2000/svg">
<path d="M16 26.3428C10.0106 26.3428 4.27599 21.9363 0.490628 17.3616C-0.163543 16.571 -0.163543 15.4233 0.490628 14.6328C1.44236 13.4826 3.43683 11.2635 6.10112 9.32415C12.8117 4.43963 19.1752 4.43021 25.8988 9.32415C29.0288 11.6024 31.5093 14.59 31.5093 14.6328C32.1634 15.4233 32.1634 16.571 31.5093 17.3616C27.7245 21.9357 21.9906 26.3428 16 26.3428ZM16 7.62224C9.36501 7.62224 3.6135 13.9497 2.00884 15.889C1.95699 15.9517 1.95699 16.0427 2.00884 16.1054C3.61357 18.0447 9.36501 24.3722 16 24.3722C22.6349 24.3722 28.3864 18.0447 29.9911 16.1054C30.0846 15.9923 29.9849 15.889 29.9911 15.889C28.3863 13.9497 22.6349 7.62224 16 7.62224Z" fill="white"/>
<path d="M16.0001 22.8941C12.197 22.8941 9.10303 19.8002 9.10303 15.9971C9.10303 12.1941 12.197 9.1001 16.0001 9.1001C19.8031 9.1001 22.8971 12.1941 22.8971 15.9971C22.8971 19.8002 19.8031 22.8941 16.0001 22.8941ZM16.0001 11.0707C13.2836 11.0707 11.0736 13.2807 11.0736 15.9971C11.0736 18.7136 13.2836 20.9236 16.0001 20.9236C18.7165 20.9236 20.9265 18.7136 20.9265 15.9971C20.9265 13.2807 18.7165 11.0707 16.0001 11.0707Z" fill="white"/>
</svg>
